<?xml version="1.0" encoding="utf-8" standalone="no"?>
<!DOCTYPE svg PUBLIC "-//W3C//DTD SVG 1.1//EN"
  "http://www.w3.org/Graphics/SVG/1.1/DTD/svg11.dtd">
<!-- Created with matplotlib (http://matplotlib.org/) -->
<svg height="384pt" version="1.1" viewBox="0 0 491 384" width="491pt" xmlns="http://www.w3.org/2000/svg" xmlns:xlink="http://www.w3.org/1999/xlink">
 <defs>
  <style type="text/css">
*{stroke-linecap:butt;stroke-linejoin:round;stroke-miterlimit:100000;}
  </style>
 </defs>
 <g id="figure_1">
  <g id="patch_1">
   <path d="M 0 384.26625 
L 491.001406 384.26625 
L 491.001406 0 
L 0 0 
z
" style="fill:#ffffff;"/>
  </g>
  <g id="axes_1">
   <g id="patch_2">
    <path d="M 36.26 349.820938 
L 482.66 349.820938 
L 482.66 15.020938 
L 36.26 15.020938 
z
" style="fill:#eaeaf2;"/>
   </g>
   <g id="matplotlib.axis_1">
    <g id="xtick_1">
     <g id="line2d_1">
      <path clip-path="url(#p00eafeb89f)" d="M 36.26 349.820938 
L 36.26 15.020938 
" style="fill:none;stroke:#ffffff;stroke-linecap:round;"/>
     </g>
     <g id="line2d_2"/>
     <g id="line2d_3"/>
     <g id="text_1">
      <!-- 0 -->
      <defs>
       <path d="M 4.15625 35.296875 
Q 4.15625 48 6.765625 55.734375 
Q 9.375 63.484375 14.515625 67.671875 
Q 19.671875 71.875 27.484375 71.875 
Q 33.25 71.875 37.59375 69.546875 
Q 41.9375 67.234375 44.765625 62.859375 
Q 47.609375 58.5 49.21875 52.21875 
Q 50.828125 45.953125 50.828125 35.296875 
Q 50.828125 22.703125 48.234375 14.96875 
Q 45.65625 7.234375 40.5 3 
Q 35.359375 -1.21875 27.484375 -1.21875 
Q 17.140625 -1.21875 11.234375 6.203125 
Q 4.15625 15.140625 4.15625 35.296875 
M 13.1875 35.296875 
Q 13.1875 17.671875 17.3125 11.828125 
Q 21.4375 6 27.484375 6 
Q 33.546875 6 37.671875 11.859375 
Q 41.796875 17.71875 41.796875 35.296875 
Q 41.796875 52.984375 37.671875 58.78125 
Q 33.546875 64.59375 27.390625 64.59375 
Q 21.34375 64.59375 17.71875 59.46875 
Q 13.1875 52.9375 13.1875 35.296875 
" id="ArialMT-30"/>
      </defs>
      <g style="fill:#262626;" transform="translate(33.47953125 363.97875)scale(0.1 -0.1)">
       <use xlink:href="#ArialMT-30"/>
      </g>
     </g>
    </g>
    <g id="xtick_2">
     <g id="line2d_4">
      <path clip-path="url(#p00eafeb89f)" d="M 85.86 349.820938 
L 85.86 15.020938 
" style="fill:none;stroke:#ffffff;stroke-linecap:round;"/>
     </g>
     <g id="line2d_5"/>
     <g id="line2d_6"/>
     <g id="text_2">
      <!-- 20 -->
      <defs>
       <path d="M 50.34375 8.453125 
L 50.34375 0 
L 3.03125 0 
Q 2.9375 3.171875 4.046875 6.109375 
Q 5.859375 10.9375 9.828125 15.625 
Q 13.8125 20.3125 21.34375 26.46875 
Q 33.015625 36.03125 37.109375 41.625 
Q 41.21875 47.21875 41.21875 52.203125 
Q 41.21875 57.421875 37.46875 61 
Q 33.734375 64.59375 27.734375 64.59375 
Q 21.390625 64.59375 17.578125 60.78125 
Q 13.765625 56.984375 13.71875 50.25 
L 4.6875 51.171875 
Q 5.609375 61.28125 11.65625 66.578125 
Q 17.71875 71.875 27.9375 71.875 
Q 38.234375 71.875 44.234375 66.15625 
Q 50.25 60.453125 50.25 52 
Q 50.25 47.703125 48.484375 43.546875 
Q 46.734375 39.40625 42.65625 34.8125 
Q 38.578125 30.21875 29.109375 22.21875 
Q 21.1875 15.578125 18.9375 13.203125 
Q 16.703125 10.84375 15.234375 8.453125 
z
" id="ArialMT-32"/>
      </defs>
      <g style="fill:#262626;" transform="translate(80.2990625 363.97875)scale(0.1 -0.1)">
       <use xlink:href="#ArialMT-32"/>
       <use x="55.615234375" xlink:href="#ArialMT-30"/>
      </g>
     </g>
    </g>
    <g id="xtick_3">
     <g id="line2d_7">
      <path clip-path="url(#p00eafeb89f)" d="M 135.46 349.820938 
L 135.46 15.020938 
" style="fill:none;stroke:#ffffff;stroke-linecap:round;"/>
     </g>
     <g id="line2d_8"/>
     <g id="line2d_9"/>
     <g id="text_3">
      <!-- 40 -->
      <defs>
       <path d="M 32.328125 0 
L 32.328125 17.140625 
L 1.265625 17.140625 
L 1.265625 25.203125 
L 33.9375 71.578125 
L 41.109375 71.578125 
L 41.109375 25.203125 
L 50.78125 25.203125 
L 50.78125 17.140625 
L 41.109375 17.140625 
L 41.109375 0 
z
M 32.328125 25.203125 
L 32.328125 57.46875 
L 9.90625 25.203125 
z
" id="ArialMT-34"/>
      </defs>
      <g style="fill:#262626;" transform="translate(129.8990625 363.97875)scale(0.1 -0.1)">
       <use xlink:href="#ArialMT-34"/>
       <use x="55.615234375" xlink:href="#ArialMT-30"/>
      </g>
     </g>
    </g>
    <g id="xtick_4">
     <g id="line2d_10">
      <path clip-path="url(#p00eafeb89f)" d="M 185.06 349.820938 
L 185.06 15.020938 
" style="fill:none;stroke:#ffffff;stroke-linecap:round;"/>
     </g>
     <g id="line2d_11"/>
     <g id="line2d_12"/>
     <g id="text_4">
      <!-- 60 -->
      <defs>
       <path d="M 49.75 54.046875 
L 41.015625 53.375 
Q 39.84375 58.546875 37.703125 60.890625 
Q 34.125 64.65625 28.90625 64.65625 
Q 24.703125 64.65625 21.53125 62.3125 
Q 17.390625 59.28125 14.984375 53.46875 
Q 12.59375 47.65625 12.5 36.921875 
Q 15.671875 41.75 20.265625 44.09375 
Q 24.859375 46.4375 29.890625 46.4375 
Q 38.671875 46.4375 44.84375 39.96875 
Q 51.03125 33.5 51.03125 23.25 
Q 51.03125 16.5 48.125 10.71875 
Q 45.21875 4.9375 40.140625 1.859375 
Q 35.0625 -1.21875 28.609375 -1.21875 
Q 17.625 -1.21875 10.6875 6.859375 
Q 3.765625 14.9375 3.765625 33.5 
Q 3.765625 54.25 11.421875 63.671875 
Q 18.109375 71.875 29.4375 71.875 
Q 37.890625 71.875 43.28125 67.140625 
Q 48.6875 62.40625 49.75 54.046875 
M 13.875 23.1875 
Q 13.875 18.65625 15.796875 14.5 
Q 17.71875 10.359375 21.1875 8.171875 
Q 24.65625 6 28.46875 6 
Q 34.03125 6 38.03125 10.484375 
Q 42.046875 14.984375 42.046875 22.703125 
Q 42.046875 30.125 38.078125 34.390625 
Q 34.125 38.671875 28.125 38.671875 
Q 22.171875 38.671875 18.015625 34.390625 
Q 13.875 30.125 13.875 23.1875 
" id="ArialMT-36"/>
      </defs>
      <g style="fill:#262626;" transform="translate(179.4990625 363.97875)scale(0.1 -0.1)">
       <use xlink:href="#ArialMT-36"/>
       <use x="55.615234375" xlink:href="#ArialMT-30"/>
      </g>
     </g>
    </g>
    <g id="xtick_5">
     <g id="line2d_13">
      <path clip-path="url(#p00eafeb89f)" d="M 234.66 349.820938 
L 234.66 15.020938 
" style="fill:none;stroke:#ffffff;stroke-linecap:round;"/>
     </g>
     <g id="line2d_14"/>
     <g id="line2d_15"/>
     <g id="text_5">
      <!-- 80 -->
      <defs>
       <path d="M 17.671875 38.8125 
Q 12.203125 40.828125 9.5625 44.53125 
Q 6.9375 48.25 6.9375 53.421875 
Q 6.9375 61.234375 12.546875 66.546875 
Q 18.171875 71.875 27.484375 71.875 
Q 36.859375 71.875 42.578125 66.421875 
Q 48.296875 60.984375 48.296875 53.171875 
Q 48.296875 48.1875 45.671875 44.5 
Q 43.0625 40.828125 37.75 38.8125 
Q 44.34375 36.671875 47.78125 31.875 
Q 51.21875 27.09375 51.21875 20.453125 
Q 51.21875 11.28125 44.71875 5.03125 
Q 38.234375 -1.21875 27.640625 -1.21875 
Q 17.046875 -1.21875 10.546875 5.046875 
Q 4.046875 11.328125 4.046875 20.703125 
Q 4.046875 27.6875 7.59375 32.390625 
Q 11.140625 37.109375 17.671875 38.8125 
M 15.921875 53.71875 
Q 15.921875 48.640625 19.1875 45.40625 
Q 22.46875 42.1875 27.6875 42.1875 
Q 32.765625 42.1875 36.015625 45.375 
Q 39.265625 48.578125 39.265625 53.21875 
Q 39.265625 58.0625 35.90625 61.359375 
Q 32.5625 64.65625 27.59375 64.65625 
Q 22.5625 64.65625 19.234375 61.421875 
Q 15.921875 58.203125 15.921875 53.71875 
M 13.09375 20.65625 
Q 13.09375 16.890625 14.875 13.375 
Q 16.65625 9.859375 20.171875 7.921875 
Q 23.6875 6 27.734375 6 
Q 34.03125 6 38.125 10.046875 
Q 42.234375 14.109375 42.234375 20.359375 
Q 42.234375 26.703125 38.015625 30.859375 
Q 33.796875 35.015625 27.4375 35.015625 
Q 21.234375 35.015625 17.15625 30.90625 
Q 13.09375 26.8125 13.09375 20.65625 
" id="ArialMT-38"/>
      </defs>
      <g style="fill:#262626;" transform="translate(229.0990625 363.97875)scale(0.1 -0.1)">
       <use xlink:href="#ArialMT-38"/>
       <use x="55.615234375" xlink:href="#ArialMT-30"/>
      </g>
     </g>
    </g>
    <g id="xtick_6">
     <g id="line2d_16">
      <path clip-path="url(#p00eafeb89f)" d="M 284.26 349.820938 
L 284.26 15.020938 
" style="fill:none;stroke:#ffffff;stroke-linecap:round;"/>
     </g>
     <g id="line2d_17"/>
     <g id="line2d_18"/>
     <g id="text_6">
      <!-- 100 -->
      <defs>
       <path d="M 37.25 0 
L 28.46875 0 
L 28.46875 56 
Q 25.296875 52.984375 20.140625 49.953125 
Q 14.984375 46.921875 10.890625 45.40625 
L 10.890625 53.90625 
Q 18.265625 57.375 23.78125 62.296875 
Q 29.296875 67.234375 31.59375 71.875 
L 37.25 71.875 
z
" id="ArialMT-31"/>
      </defs>
      <g style="fill:#262626;" transform="translate(275.91859375 363.97875)scale(0.1 -0.1)">
       <use xlink:href="#ArialMT-31"/>
       <use x="55.615234375" xlink:href="#ArialMT-30"/>
       <use x="111.23046875" xlink:href="#ArialMT-30"/>
      </g>
     </g>
    </g>
    <g id="xtick_7">
     <g id="line2d_19">
      <path clip-path="url(#p00eafeb89f)" d="M 333.86 349.820938 
L 333.86 15.020938 
" style="fill:none;stroke:#ffffff;stroke-linecap:round;"/>
     </g>
     <g id="line2d_20"/>
     <g id="line2d_21"/>
     <g id="text_7">
      <!-- 120 -->
      <g style="fill:#262626;" transform="translate(325.51859375 363.97875)scale(0.1 -0.1)">
       <use xlink:href="#ArialMT-31"/>
       <use x="55.615234375" xlink:href="#ArialMT-32"/>
       <use x="111.23046875" xlink:href="#ArialMT-30"/>
      </g>
     </g>
    </g>
    <g id="xtick_8">
     <g id="line2d_22">
      <path clip-path="url(#p00eafeb89f)" d="M 383.46 349.820938 
L 383.46 15.020938 
" style="fill:none;stroke:#ffffff;stroke-linecap:round;"/>
     </g>
     <g id="line2d_23"/>
     <g id="line2d_24"/>
     <g id="text_8">
      <!-- 140 -->
      <g style="fill:#262626;" transform="translate(375.11859375 363.97875)scale(0.1 -0.1)">
       <use xlink:href="#ArialMT-31"/>
       <use x="55.615234375" xlink:href="#ArialMT-34"/>
       <use x="111.23046875" xlink:href="#ArialMT-30"/>
      </g>
     </g>
    </g>
    <g id="xtick_9">
     <g id="line2d_25">
      <path clip-path="url(#p00eafeb89f)" d="M 433.06 349.820938 
L 433.06 15.020938 
" style="fill:none;stroke:#ffffff;stroke-linecap:round;"/>
     </g>
     <g id="line2d_26"/>
     <g id="line2d_27"/>
     <g id="text_9">
      <!-- 160 -->
      <g style="fill:#262626;" transform="translate(424.71859375 363.97875)scale(0.1 -0.1)">
       <use xlink:href="#ArialMT-31"/>
       <use x="55.615234375" xlink:href="#ArialMT-36"/>
       <use x="111.23046875" xlink:href="#ArialMT-30"/>
      </g>
     </g>
    </g>
    <g id="xtick_10">
     <g id="line2d_28">
      <path clip-path="url(#p00eafeb89f)" d="M 482.66 349.820938 
L 482.66 15.020938 
" style="fill:none;stroke:#ffffff;stroke-linecap:round;"/>
     </g>
     <g id="line2d_29"/>
     <g id="line2d_30"/>
     <g id="text_10">
      <!-- 180 -->
      <g style="fill:#262626;" transform="translate(474.31859375 363.97875)scale(0.1 -0.1)">
       <use xlink:href="#ArialMT-31"/>
       <use x="55.615234375" xlink:href="#ArialMT-38"/>
       <use x="111.23046875" xlink:href="#ArialMT-30"/>
      </g>
     </g>
    </g>
    <g id="text_11">
     <!-- Epicentral Distance ($^\circ$) -->
     <defs>
      <path d="M 6.59375 -19.875 
L 6.59375 51.859375 
L 14.59375 51.859375 
L 14.59375 45.125 
Q 17.4375 49.078125 21 51.046875 
Q 24.5625 53.03125 29.640625 53.03125 
Q 36.28125 53.03125 41.359375 49.609375 
Q 46.4375 46.1875 49.015625 39.953125 
Q 51.609375 33.734375 51.609375 26.3125 
Q 51.609375 18.359375 48.75 11.984375 
Q 45.90625 5.609375 40.453125 2.21875 
Q 35.015625 -1.171875 29 -1.171875 
Q 24.609375 -1.171875 21.109375 0.6875 
Q 17.625 2.546875 15.375 5.375 
L 15.375 -19.875 
z
M 14.546875 25.640625 
Q 14.546875 15.625 18.59375 10.84375 
Q 22.65625 6.0625 28.421875 6.0625 
Q 34.28125 6.0625 38.453125 11.015625 
Q 42.625 15.96875 42.625 26.375 
Q 42.625 36.28125 38.546875 41.203125 
Q 34.46875 46.140625 28.8125 46.140625 
Q 23.1875 46.140625 18.859375 40.890625 
Q 14.546875 35.640625 14.546875 25.640625 
" id="ArialMT-70"/>
      <path d="M 6.59375 0 
L 6.59375 51.859375 
L 14.5 51.859375 
L 14.5 44.484375 
Q 20.21875 53.03125 31 53.03125 
Q 35.6875 53.03125 39.625 51.34375 
Q 43.5625 49.65625 45.515625 46.921875 
Q 47.46875 44.1875 48.25 40.4375 
Q 48.734375 37.984375 48.734375 31.890625 
L 48.734375 0 
L 39.9375 0 
L 39.9375 31.546875 
Q 39.9375 36.921875 38.90625 39.578125 
Q 37.890625 42.234375 35.28125 43.8125 
Q 32.671875 45.40625 29.15625 45.40625 
Q 23.53125 45.40625 19.453125 41.84375 
Q 15.375 38.28125 15.375 28.328125 
L 15.375 0 
z
" id="ArialMT-6e"/>
      <path d="M 6.390625 0 
L 6.390625 71.578125 
L 15.1875 71.578125 
L 15.1875 0 
z
" id="ArialMT-6c"/>
      <path d="M 7.71875 0 
L 7.71875 71.578125 
L 32.375 71.578125 
Q 40.71875 71.578125 45.125 70.5625 
Q 51.265625 69.140625 55.609375 65.4375 
Q 61.28125 60.640625 64.078125 53.1875 
Q 66.890625 45.75 66.890625 36.1875 
Q 66.890625 28.03125 64.984375 21.734375 
Q 63.09375 15.4375 60.109375 11.296875 
Q 57.125 7.171875 53.578125 4.796875 
Q 50.046875 2.4375 45.046875 1.21875 
Q 40.046875 0 33.546875 0 
z
M 17.1875 8.453125 
L 32.46875 8.453125 
Q 39.546875 8.453125 43.578125 9.765625 
Q 47.609375 11.078125 50 13.484375 
Q 53.375 16.84375 55.25 22.53125 
Q 57.125 28.21875 57.125 36.328125 
Q 57.125 47.5625 53.4375 53.59375 
Q 49.75 59.625 44.484375 61.671875 
Q 40.671875 63.140625 32.234375 63.140625 
L 17.1875 63.140625 
z
" id="ArialMT-44"/>
      <path d="M 3.078125 15.484375 
L 11.765625 16.84375 
Q 12.5 11.625 15.84375 8.84375 
Q 19.1875 6.0625 25.203125 6.0625 
Q 31.25 6.0625 34.171875 8.515625 
Q 37.109375 10.984375 37.109375 14.3125 
Q 37.109375 17.28125 34.515625 19 
Q 32.71875 20.171875 25.53125 21.96875 
Q 15.875 24.421875 12.140625 26.203125 
Q 8.40625 27.984375 6.46875 31.125 
Q 4.546875 34.28125 4.546875 38.09375 
Q 4.546875 41.546875 6.125 44.5 
Q 7.71875 47.46875 10.453125 49.421875 
Q 12.5 50.921875 16.03125 51.96875 
Q 19.578125 53.03125 23.640625 53.03125 
Q 29.734375 53.03125 34.34375 51.265625 
Q 38.96875 49.515625 41.15625 46.5 
Q 43.359375 43.5 44.1875 38.484375 
L 35.59375 37.3125 
Q 35.015625 41.3125 32.203125 43.546875 
Q 29.390625 45.796875 24.265625 45.796875 
Q 18.21875 45.796875 15.625 43.796875 
Q 13.03125 41.796875 13.03125 39.109375 
Q 13.03125 37.40625 14.109375 36.03125 
Q 15.1875 34.625 17.484375 33.6875 
Q 18.796875 33.203125 25.25 31.453125 
Q 34.578125 28.953125 38.25 27.359375 
Q 41.9375 25.78125 44.03125 22.75 
Q 46.140625 19.734375 46.140625 15.234375 
Q 46.140625 10.84375 43.578125 6.953125 
Q 41.015625 3.078125 36.171875 0.953125 
Q 31.34375 -1.171875 25.25 -1.171875 
Q 15.140625 -1.171875 9.84375 3.03125 
Q 4.546875 7.234375 3.078125 15.484375 
" id="ArialMT-73"/>
      <path d="M 23.390625 -21.046875 
Q 16.109375 -11.859375 11.078125 0.4375 
Q 6.0625 12.75 6.0625 25.921875 
Q 6.0625 37.546875 9.8125 48.1875 
Q 14.203125 60.546875 23.390625 72.796875 
L 29.6875 72.796875 
Q 23.78125 62.640625 21.875 58.296875 
Q 18.890625 51.5625 17.1875 44.234375 
Q 15.09375 35.109375 15.09375 25.875 
Q 15.09375 2.390625 29.6875 -21.046875 
z
" id="ArialMT-28"/>
      <path d="M 25 5.609375 
Q 19.828125 5.609375 15.359375 8.21875 
Q 10.890625 10.84375 8.25 15.375 
Q 5.609375 19.921875 5.609375 25 
Q 5.609375 30.078125 8.25 34.609375 
Q 10.890625 39.15625 15.359375 41.765625 
Q 19.828125 44.390625 25 44.390625 
Q 30.171875 44.390625 34.609375 41.75 
Q 39.0625 39.109375 41.671875 34.59375 
Q 44.28125 30.078125 44.28125 25 
Q 44.28125 19.921875 41.671875 15.40625 
Q 39.0625 10.890625 34.609375 8.25 
Q 30.171875 5.609375 25 5.609375 
M 25 9.625 
Q 31.25 9.625 35.765625 14.1875 
Q 40.28125 18.75 40.28125 25 
Q 40.28125 29 38.203125 32.59375 
Q 36.140625 36.1875 32.625 38.28125 
Q 29.109375 40.375 25 40.375 
Q 21.921875 40.375 19.140625 39.171875 
Q 16.359375 37.984375 14.15625 35.78125 
Q 11.96875 33.59375 10.796875 30.828125 
Q 9.625 28.078125 9.625 25 
Q 9.625 18.75 14.140625 14.1875 
Q 18.65625 9.625 25 9.625 
" id="Cmsy10-b1"/>
      <path d="M 6.5 0 
L 6.5 51.859375 
L 14.40625 51.859375 
L 14.40625 44 
Q 17.4375 49.515625 20 51.265625 
Q 22.5625 53.03125 25.640625 53.03125 
Q 30.078125 53.03125 34.671875 50.203125 
L 31.640625 42.046875 
Q 28.421875 43.953125 25.203125 43.953125 
Q 22.3125 43.953125 20.015625 42.21875 
Q 17.71875 40.484375 16.75 37.40625 
Q 15.28125 32.71875 15.28125 27.15625 
L 15.28125 0 
z
" id="ArialMT-72"/>
      <path d="M 12.359375 -21.046875 
L 6.0625 -21.046875 
Q 20.65625 2.390625 20.65625 25.875 
Q 20.65625 35.0625 18.5625 44.09375 
Q 16.890625 51.421875 13.921875 58.15625 
Q 12.015625 62.546875 6.0625 72.796875 
L 12.359375 72.796875 
Q 21.53125 60.546875 25.921875 48.1875 
Q 29.6875 37.546875 29.6875 25.921875 
Q 29.6875 12.75 24.625 0.4375 
Q 19.578125 -11.859375 12.359375 -21.046875 
" id="ArialMT-29"/>
      <path d="M 42.09375 16.703125 
L 51.171875 15.578125 
Q 49.03125 7.625 43.21875 3.21875 
Q 37.40625 -1.171875 28.375 -1.171875 
Q 17 -1.171875 10.328125 5.828125 
Q 3.65625 12.84375 3.65625 25.484375 
Q 3.65625 38.578125 10.390625 45.796875 
Q 17.140625 53.03125 27.875 53.03125 
Q 38.28125 53.03125 44.875 45.953125 
Q 51.46875 38.875 51.46875 26.03125 
Q 51.46875 25.25 51.421875 23.6875 
L 12.75 23.6875 
Q 13.234375 15.140625 17.578125 10.59375 
Q 21.921875 6.0625 28.421875 6.0625 
Q 33.25 6.0625 36.671875 8.59375 
Q 40.09375 11.140625 42.09375 16.703125 
M 13.234375 30.90625 
L 42.1875 30.90625 
Q 41.609375 37.453125 38.875 40.71875 
Q 34.671875 45.796875 27.984375 45.796875 
Q 21.921875 45.796875 17.796875 41.75 
Q 13.671875 37.703125 13.234375 30.90625 
" id="ArialMT-65"/>
      <path d="M 25.78125 7.859375 
L 27.046875 0.09375 
Q 23.34375 -0.6875 20.40625 -0.6875 
Q 15.625 -0.6875 12.984375 0.828125 
Q 10.359375 2.34375 9.28125 4.8125 
Q 8.203125 7.28125 8.203125 15.1875 
L 8.203125 45.015625 
L 1.765625 45.015625 
L 1.765625 51.859375 
L 8.203125 51.859375 
L 8.203125 64.703125 
L 16.9375 69.96875 
L 16.9375 51.859375 
L 25.78125 51.859375 
L 25.78125 45.015625 
L 16.9375 45.015625 
L 16.9375 14.703125 
Q 16.9375 10.9375 17.40625 9.859375 
Q 17.875 8.796875 18.921875 8.15625 
Q 19.96875 7.515625 21.921875 7.515625 
Q 23.390625 7.515625 25.78125 7.859375 
" id="ArialMT-74"/>
      <path d="M 7.90625 0 
L 7.90625 71.578125 
L 59.671875 71.578125 
L 59.671875 63.140625 
L 17.390625 63.140625 
L 17.390625 41.21875 
L 56.984375 41.21875 
L 56.984375 32.8125 
L 17.390625 32.8125 
L 17.390625 8.453125 
L 61.328125 8.453125 
L 61.328125 0 
z
" id="ArialMT-45"/>
      <path d="M 40.4375 19 
L 49.078125 17.875 
Q 47.65625 8.9375 41.8125 3.875 
Q 35.984375 -1.171875 27.484375 -1.171875 
Q 16.84375 -1.171875 10.375 5.78125 
Q 3.90625 12.75 3.90625 25.734375 
Q 3.90625 34.125 6.6875 40.421875 
Q 9.46875 46.734375 15.15625 49.875 
Q 20.84375 53.03125 27.546875 53.03125 
Q 35.984375 53.03125 41.359375 48.75 
Q 46.734375 44.484375 48.25 36.625 
L 39.703125 35.296875 
Q 38.484375 40.53125 35.375 43.15625 
Q 32.28125 45.796875 27.875 45.796875 
Q 21.234375 45.796875 17.078125 41.03125 
Q 12.9375 36.28125 12.9375 25.984375 
Q 12.9375 15.53125 16.9375 10.796875 
Q 20.953125 6.0625 27.390625 6.0625 
Q 32.5625 6.0625 36.03125 9.234375 
Q 39.5 12.40625 40.4375 19 
" id="ArialMT-63"/>
      <path d="M 40.4375 6.390625 
Q 35.546875 2.25 31.03125 0.53125 
Q 26.515625 -1.171875 21.34375 -1.171875 
Q 12.796875 -1.171875 8.203125 3 
Q 3.609375 7.171875 3.609375 13.671875 
Q 3.609375 17.484375 5.34375 20.625 
Q 7.078125 23.78125 9.890625 25.6875 
Q 12.703125 27.59375 16.21875 28.5625 
Q 18.796875 29.25 24.03125 29.890625 
Q 34.671875 31.15625 39.703125 32.90625 
Q 39.75 34.71875 39.75 35.203125 
Q 39.75 40.578125 37.25 42.78125 
Q 33.890625 45.75 27.25 45.75 
Q 21.046875 45.75 18.09375 43.578125 
Q 15.140625 41.40625 13.71875 35.890625 
L 5.125 37.0625 
Q 6.296875 42.578125 8.984375 45.96875 
Q 11.671875 49.359375 16.75 51.1875 
Q 21.828125 53.03125 28.515625 53.03125 
Q 35.15625 53.03125 39.296875 51.46875 
Q 43.453125 49.90625 45.40625 47.53125 
Q 47.359375 45.171875 48.140625 41.546875 
Q 48.578125 39.3125 48.578125 33.453125 
L 48.578125 21.734375 
Q 48.578125 9.46875 49.140625 6.21875 
Q 49.703125 2.984375 51.375 0 
L 42.1875 0 
Q 40.828125 2.734375 40.4375 6.390625 
M 39.703125 26.03125 
Q 34.90625 24.078125 25.34375 22.703125 
Q 19.921875 21.921875 17.671875 20.9375 
Q 15.4375 19.96875 14.203125 18.09375 
Q 12.984375 16.21875 12.984375 13.921875 
Q 12.984375 10.40625 15.640625 8.0625 
Q 18.3125 5.71875 23.4375 5.71875 
Q 28.515625 5.71875 32.46875 7.9375 
Q 36.421875 10.15625 38.28125 14.015625 
Q 39.703125 17 39.703125 22.796875 
z
" id="ArialMT-61"/>
      <path d="M 6.640625 61.46875 
L 6.640625 71.578125 
L 15.4375 71.578125 
L 15.4375 61.46875 
z
M 6.640625 0 
L 6.640625 51.859375 
L 15.4375 51.859375 
L 15.4375 0 
z
" id="ArialMT-69"/>
      <path id="ArialMT-20"/>
     </defs>
     <g style="fill:#262626;" transform="translate(187.57 381.18625)scale(0.14 -0.14)">
      <use transform="translate(0.0 0.203125)" xlink:href="#ArialMT-45"/>
      <use transform="translate(66.69921875 0.203125)" xlink:href="#ArialMT-70"/>
      <use transform="translate(122.314453125 0.203125)" xlink:href="#ArialMT-69"/>
      <use transform="translate(144.53125 0.203125)" xlink:href="#ArialMT-63"/>
      <use transform="translate(194.53125 0.203125)" xlink:href="#ArialMT-65"/>
      <use transform="translate(250.146484375 0.203125)" xlink:href="#ArialMT-6e"/>
      <use transform="translate(305.76171875 0.203125)" xlink:href="#ArialMT-74"/>
      <use transform="translate(333.544921875 0.203125)" xlink:href="#ArialMT-72"/>
      <use transform="translate(366.845703125 0.203125)" xlink:href="#ArialMT-61"/>
      <use transform="translate(422.4609375 0.203125)" xlink:href="#ArialMT-6c"/>
      <use transform="translate(444.677734375 0.203125)" xlink:href="#ArialMT-20"/>
      <use transform="translate(472.4609375 0.203125)" xlink:href="#ArialMT-44"/>
      <use transform="translate(544.677734375 0.203125)" xlink:href="#ArialMT-69"/>
      <use transform="translate(566.89453125 0.203125)" xlink:href="#ArialMT-73"/>
      <use transform="translate(616.89453125 0.203125)" xlink:href="#ArialMT-74"/>
      <use transform="translate(644.677734375 0.203125)" xlink:href="#ArialMT-61"/>
      <use transform="translate(700.29296875 0.203125)" xlink:href="#ArialMT-6e"/>
      <use transform="translate(755.908203125 0.203125)" xlink:href="#ArialMT-63"/>
      <use transform="translate(805.908203125 0.203125)" xlink:href="#ArialMT-65"/>
      <use transform="translate(861.5234375 0.203125)" xlink:href="#ArialMT-20"/>
      <use transform="translate(889.306640625 0.203125)" xlink:href="#ArialMT-28"/>
      <use transform="translate(939.362578125 38.4671875)scale(0.7)" xlink:href="#Cmsy10-b1"/>
      <use transform="translate(993.0309374999999 0.203125)" xlink:href="#ArialMT-29"/>
     </g>
    </g>
   </g>
   <g id="matplotlib.axis_2">
    <g id="ytick_1">
     <g id="line2d_31">
      <path clip-path="url(#p00eafeb89f)" d="M 36.26 349.820938 
L 482.66 349.820938 
" style="fill:none;stroke:#ffffff;stroke-linecap:round;"/>
     </g>
     <g id="line2d_32"/>
     <g id="line2d_33"/>
     <g id="text_12">
      <!-- 0 -->
      <g style="fill:#262626;" transform="translate(23.6990625 352.40609375)scale(0.1 -0.1)">
       <use xlink:href="#ArialMT-30"/>
      </g>
     </g>
    </g>
    <g id="ytick_2">
     <g id="line2d_34">
      <path clip-path="url(#p00eafeb89f)" d="M 36.26 282.860937 
L 482.66 282.860937 
" style="fill:none;stroke:#ffffff;stroke-linecap:round;"/>
     </g>
     <g id="line2d_35"/>
     <g id="line2d_36"/>
     <g id="text_13">
      <!-- 10 -->
      <g style="fill:#262626;" transform="translate(18.138125 285.44609375)scale(0.1 -0.1)">
       <use xlink:href="#ArialMT-31"/>
       <use x="55.615234375" xlink:href="#ArialMT-30"/>
      </g>
     </g>
    </g>
    <g id="ytick_3">
     <g id="line2d_37">
      <path clip-path="url(#p00eafeb89f)" d="M 36.26 215.900937 
L 482.66 215.900937 
" style="fill:none;stroke:#ffffff;stroke-linecap:round;"/>
     </g>
     <g id="line2d_38"/>
     <g id="line2d_39"/>
     <g id="text_14">
      <!-- 20 -->
      <g style="fill:#262626;" transform="translate(18.138125 218.48609375)scale(0.1 -0.1)">
       <use xlink:href="#ArialMT-32"/>
       <use x="55.615234375" xlink:href="#ArialMT-30"/>
      </g>
     </g>
    </g>
    <g id="ytick_4">
     <g id="line2d_40">
      <path clip-path="url(#p00eafeb89f)" d="M 36.26 148.940937 
L 482.66 148.940937 
" style="fill:none;stroke:#ffffff;stroke-linecap:round;"/>
     </g>
     <g id="line2d_41"/>
     <g id="line2d_42"/>
     <g id="text_15">
      <!-- 30 -->
      <defs>
       <path d="M 4.203125 18.890625 
L 12.984375 20.0625 
Q 14.5 12.59375 18.140625 9.296875 
Q 21.78125 6 27 6 
Q 33.203125 6 37.46875 10.296875 
Q 41.75 14.59375 41.75 20.953125 
Q 41.75 27 37.796875 30.921875 
Q 33.84375 34.859375 27.734375 34.859375 
Q 25.25 34.859375 21.53125 33.890625 
L 22.515625 41.609375 
Q 23.390625 41.5 23.921875 41.5 
Q 29.546875 41.5 34.03125 44.421875 
Q 38.53125 47.359375 38.53125 53.46875 
Q 38.53125 58.296875 35.25 61.46875 
Q 31.984375 64.65625 26.8125 64.65625 
Q 21.6875 64.65625 18.265625 61.421875 
Q 14.84375 58.203125 13.875 51.765625 
L 5.078125 53.328125 
Q 6.6875 62.15625 12.390625 67.015625 
Q 18.109375 71.875 26.609375 71.875 
Q 32.46875 71.875 37.390625 69.359375 
Q 42.328125 66.84375 44.9375 62.5 
Q 47.5625 58.15625 47.5625 53.265625 
Q 47.5625 48.640625 45.0625 44.828125 
Q 42.578125 41.015625 37.703125 38.765625 
Q 44.046875 37.3125 47.5625 32.6875 
Q 51.078125 28.078125 51.078125 21.140625 
Q 51.078125 11.765625 44.234375 5.25 
Q 37.40625 -1.265625 26.953125 -1.265625 
Q 17.53125 -1.265625 11.296875 4.34375 
Q 5.078125 9.96875 4.203125 18.890625 
" id="ArialMT-33"/>
      </defs>
      <g style="fill:#262626;" transform="translate(18.138125 151.52609375)scale(0.1 -0.1)">
       <use xlink:href="#ArialMT-33"/>
       <use x="55.615234375" xlink:href="#ArialMT-30"/>
      </g>
     </g>
    </g>
    <g id="ytick_5">
     <g id="line2d_43">
      <path clip-path="url(#p00eafeb89f)" d="M 36.26 81.980937 
L 482.66 81.980937 
" style="fill:none;stroke:#ffffff;stroke-linecap:round;"/>
     </g>
     <g id="line2d_44"/>
     <g id="line2d_45"/>
     <g id="text_16">
      <!-- 40 -->
      <g style="fill:#262626;" transform="translate(18.138125 84.56609375)scale(0.1 -0.1)">
       <use xlink:href="#ArialMT-34"/>
       <use x="55.615234375" xlink:href="#ArialMT-30"/>
      </g>
     </g>
    </g>
    <g id="ytick_6">
     <g id="line2d_46">
      <path clip-path="url(#p00eafeb89f)" d="M 36.26 15.020938 
L 482.66 15.020938 
" style="fill:none;stroke:#ffffff;stroke-linecap:round;"/>
     </g>
     <g id="line2d_47"/>
     <g id="line2d_48"/>
     <g id="text_17">
      <!-- 50 -->
      <defs>
       <path d="M 4.15625 18.75 
L 13.375 19.53125 
Q 14.40625 12.796875 18.140625 9.390625 
Q 21.875 6 27.15625 6 
Q 33.5 6 37.890625 10.78125 
Q 42.28125 15.578125 42.28125 23.484375 
Q 42.28125 31 38.0625 35.34375 
Q 33.84375 39.703125 27 39.703125 
Q 22.75 39.703125 19.328125 37.765625 
Q 15.921875 35.84375 13.96875 32.765625 
L 5.71875 33.84375 
L 12.640625 70.609375 
L 48.25 70.609375 
L 48.25 62.203125 
L 19.671875 62.203125 
L 15.828125 42.96875 
Q 22.265625 47.46875 29.34375 47.46875 
Q 38.71875 47.46875 45.15625 40.96875 
Q 51.609375 34.46875 51.609375 24.265625 
Q 51.609375 14.546875 45.953125 7.46875 
Q 39.0625 -1.21875 27.15625 -1.21875 
Q 17.390625 -1.21875 11.203125 4.25 
Q 5.03125 9.71875 4.15625 18.75 
" id="ArialMT-35"/>
      </defs>
      <g style="fill:#262626;" transform="translate(18.138125 17.60609375)scale(0.1 -0.1)">
       <use xlink:href="#ArialMT-35"/>
       <use x="55.615234375" xlink:href="#ArialMT-30"/>
      </g>
     </g>
    </g>
    <g id="text_18">
     <!-- Time (min) -->
     <defs>
      <path d="M 25.921875 0 
L 25.921875 63.140625 
L 2.34375 63.140625 
L 2.34375 71.578125 
L 59.078125 71.578125 
L 59.078125 63.140625 
L 35.40625 63.140625 
L 35.40625 0 
z
" id="ArialMT-54"/>
      <path d="M 6.59375 0 
L 6.59375 51.859375 
L 14.453125 51.859375 
L 14.453125 44.578125 
Q 16.890625 48.390625 20.9375 50.703125 
Q 25 53.03125 30.171875 53.03125 
Q 35.9375 53.03125 39.625 50.640625 
Q 43.3125 48.25 44.828125 43.953125 
Q 50.984375 53.03125 60.84375 53.03125 
Q 68.5625 53.03125 72.703125 48.75 
Q 76.859375 44.484375 76.859375 35.59375 
L 76.859375 0 
L 68.109375 0 
L 68.109375 32.671875 
Q 68.109375 37.9375 67.25 40.25 
Q 66.40625 42.578125 64.15625 43.984375 
Q 61.921875 45.40625 58.890625 45.40625 
Q 53.421875 45.40625 49.796875 41.765625 
Q 46.1875 38.140625 46.1875 30.125 
L 46.1875 0 
L 37.40625 0 
L 37.40625 33.6875 
Q 37.40625 39.546875 35.25 42.46875 
Q 33.109375 45.40625 28.21875 45.40625 
Q 24.515625 45.40625 21.359375 43.453125 
Q 18.21875 41.5 16.796875 37.734375 
Q 15.375 33.984375 15.375 26.90625 
L 15.375 0 
z
" id="ArialMT-6d"/>
     </defs>
     <g style="fill:#262626;" transform="translate(10.1915625 215.856875)rotate(-90.0)scale(0.14 -0.14)">
      <use xlink:href="#ArialMT-54"/>
      <use x="61.037109375" xlink:href="#ArialMT-69"/>
      <use x="83.25390625" xlink:href="#ArialMT-6d"/>
      <use x="166.5546875" xlink:href="#ArialMT-65"/>
      <use x="222.169921875" xlink:href="#ArialMT-20"/>
      <use x="249.953125" xlink:href="#ArialMT-28"/>
      <use x="283.25390625" xlink:href="#ArialMT-6d"/>
      <use x="366.5546875" xlink:href="#ArialMT-69"/>
      <use x="388.771484375" xlink:href="#ArialMT-6e"/>
      <use x="444.38671875" xlink:href="#ArialMT-29"/>
     </g>
    </g>
   </g>
   <g id="line2d_49">
    <path clip-path="url(#p00eafeb89f)" d="M 87.2116 320.070609 
L 98.48568 314.61337 
L 101.64272 316.454769 
L 112.0116 305.500113 
L 114.2684 306.116146 
L 129.1484 308.607057 
L 137.26296 280.544122 
L 140.87136 281.16685 
L 141.32272 284.836257 
L 141.7716 298.877769 
L 142.67432 278.729506 
L 143.57704 287.89633 
L 148.08568 300.123225 
L 150.79136 287.916418 
L 153.49704 291.592522 
L 153.9484 287.92981 
L 156.20272 292.817889 
L 176.04272 284.340754 
L 176.4916 291.056842 
L 188.6684 278.883513 
L 189.56864 275.836834 
L 190.47136 294.766426 
L 191.3716 277.062202 
L 192.72568 280.115577 
L 194.07728 278.28757 
L 200.39136 259.384762 
L 205.80272 268.558282 
L 205.80272 261.232858 
L 210.31136 263.080954 
L 211.2116 272.241082 
L 214.36864 275.917186 
L 214.36864 273.473145 
L 216.1716 282.023937 
L 217.97704 264.32641 
L 220.68272 265.558473 
L 225.19136 257.021073 
L 226.54296 265.578561 
L 242.32568 243.03313 
L 245.48272 246.099897 
L 245.48272 242.437185 
L 249.54 260.764138 
L 252.69704 260.77753 
L 254.04864 256.505481 
L 269.38 237.629458 
L 270.7316 259.612426 
L 273.88864 262.679193 
L 275.6916 254.744434 
L 276.59432 262.68589 
L 276.59432 251.697754 
L 285.16272 249.889834 
L 289.22 242.577802 
L 290.5716 229.761658 
L 294.18 247.479274 
L 303.64864 227.364489 
L 304.55136 250.566129 
L 308.60864 242.644762 
L 309.51136 238.98205 
L 316.72568 240.836841 
L 329.35136 199.971153 
L 334.31136 218.304802 
L 334.76272 225.630225 
L 338.82 224.424946 
L 339.27136 230.531698 
L 341.07432 210.999466 
L 341.52568 204.283378 
L 369.9316 186.672898 
L 370.38296 203.15845 
L 389.7716 214.213546 
L 390.22296 202.000042 
L 392.92864 207.504154 
L 393.38 205.06681 
L 393.83136 203.232106 
L 398.34 224.619129 
L 405.55432 204.497649 
L 419.98296 217.367362 
L 429.00272 204.571305 
" style="fill:none;"/>
    <defs>
     <path d="M 0 3.5 
C 0.928211 3.5 1.81853 3.131218 2.474874 2.474874 
C 3.131218 1.81853 3.5 0.928211 3.5 0 
C 3.5 -0.928211 3.131218 -1.81853 2.474874 -2.474874 
C 1.81853 -3.131218 0.928211 -3.5 0 -3.5 
C -0.928211 -3.5 -1.81853 -3.131218 -2.474874 -2.474874 
C -3.131218 -1.81853 -3.5 -0.928211 -3.5 0 
C -3.5 0.928211 -3.131218 1.81853 -2.474874 2.474874 
C -1.81853 3.131218 -0.928211 3.5 0 3.5 
z
" id="m17234f2e23" style="stroke:#000000;"/>
    </defs>
    <g clip-path="url(#p00eafeb89f)">
     <use style="fill:none;stroke:#000000;" x="87.2116" xlink:href="#m17234f2e23" y="320.0706095"/>
     <use style="fill:none;stroke:#000000;" x="98.48568" xlink:href="#m17234f2e23" y="314.6133695"/>
     <use style="fill:none;stroke:#000000;" x="101.64272" xlink:href="#m17234f2e23" y="316.4547695"/>
     <use style="fill:none;stroke:#000000;" x="112.0116" xlink:href="#m17234f2e23" y="305.5001135"/>
     <use style="fill:none;stroke:#000000;" x="114.2684" xlink:href="#m17234f2e23" y="306.1161455"/>
     <use style="fill:none;stroke:#000000;" x="129.1484" xlink:href="#m17234f2e23" y="308.6070575"/>
     <use style="fill:none;stroke:#000000;" x="137.26296" xlink:href="#m17234f2e23" y="280.5441215"/>
     <use style="fill:none;stroke:#000000;" x="140.87136" xlink:href="#m17234f2e23" y="281.1668495"/>
     <use style="fill:none;stroke:#000000;" x="141.32272" xlink:href="#m17234f2e23" y="284.8362575"/>
     <use style="fill:none;stroke:#000000;" x="141.7716" xlink:href="#m17234f2e23" y="298.8777695"/>
     <use style="fill:none;stroke:#000000;" x="142.67432" xlink:href="#m17234f2e23" y="278.7295055"/>
     <use style="fill:none;stroke:#000000;" x="143.57704" xlink:href="#m17234f2e23" y="287.8963295"/>
     <use style="fill:none;stroke:#000000;" x="148.08568" xlink:href="#m17234f2e23" y="300.1232255"/>
     <use style="fill:none;stroke:#000000;" x="150.79136" xlink:href="#m17234f2e23" y="287.9164175"/>
     <use style="fill:none;stroke:#000000;" x="153.49704" xlink:href="#m17234f2e23" y="291.5925215"/>
     <use style="fill:none;stroke:#000000;" x="153.9484" xlink:href="#m17234f2e23" y="287.9298095"/>
     <use style="fill:none;stroke:#000000;" x="156.20272" xlink:href="#m17234f2e23" y="292.8178895"/>
     <use style="fill:none;stroke:#000000;" x="176.04272" xlink:href="#m17234f2e23" y="284.3407535"/>
     <use style="fill:none;stroke:#000000;" x="176.4916" xlink:href="#m17234f2e23" y="291.0568415"/>
     <use style="fill:none;stroke:#000000;" x="188.6684" xlink:href="#m17234f2e23" y="278.8835135"/>
     <use style="fill:none;stroke:#000000;" x="189.56864" xlink:href="#m17234f2e23" y="275.8368335"/>
     <use style="fill:none;stroke:#000000;" x="190.47136" xlink:href="#m17234f2e23" y="294.7664255"/>
     <use style="fill:none;stroke:#000000;" x="191.3716" xlink:href="#m17234f2e23" y="277.0622015"/>
     <use style="fill:none;stroke:#000000;" x="192.72568" xlink:href="#m17234f2e23" y="280.1155775"/>
     <use style="fill:none;stroke:#000000;" x="194.07728" xlink:href="#m17234f2e23" y="278.2875695"/>
     <use style="fill:none;stroke:#000000;" x="200.39136" xlink:href="#m17234f2e23" y="259.3847615"/>
     <use style="fill:none;stroke:#000000;" x="205.80272" xlink:href="#m17234f2e23" y="268.5582815"/>
     <use style="fill:none;stroke:#000000;" x="205.80272" xlink:href="#m17234f2e23" y="261.2328575"/>
     <use style="fill:none;stroke:#000000;" x="210.31136" xlink:href="#m17234f2e23" y="263.0809535"/>
     <use style="fill:none;stroke:#000000;" x="211.2116" xlink:href="#m17234f2e23" y="272.2410815"/>
     <use style="fill:none;stroke:#000000;" x="214.36864" xlink:href="#m17234f2e23" y="275.9171855"/>
     <use style="fill:none;stroke:#000000;" x="214.36864" xlink:href="#m17234f2e23" y="273.4731455"/>
     <use style="fill:none;stroke:#000000;" x="216.1716" xlink:href="#m17234f2e23" y="282.0239375"/>
     <use style="fill:none;stroke:#000000;" x="217.97704" xlink:href="#m17234f2e23" y="264.3264095"/>
     <use style="fill:none;stroke:#000000;" x="220.68272" xlink:href="#m17234f2e23" y="265.5584735"/>
     <use style="fill:none;stroke:#000000;" x="225.19136" xlink:href="#m17234f2e23" y="257.0210735"/>
     <use style="fill:none;stroke:#000000;" x="226.54296" xlink:href="#m17234f2e23" y="265.5785615"/>
     <use style="fill:none;stroke:#000000;" x="242.32568" xlink:href="#m17234f2e23" y="243.0331295"/>
     <use style="fill:none;stroke:#000000;" x="245.48272" xlink:href="#m17234f2e23" y="246.0998975"/>
     <use style="fill:none;stroke:#000000;" x="245.48272" xlink:href="#m17234f2e23" y="242.4371855"/>
     <use style="fill:none;stroke:#000000;" x="249.54" xlink:href="#m17234f2e23" y="260.7641375"/>
     <use style="fill:none;stroke:#000000;" x="252.69704" xlink:href="#m17234f2e23" y="260.7775295"/>
     <use style="fill:none;stroke:#000000;" x="254.04864" xlink:href="#m17234f2e23" y="256.5054815"/>
     <use style="fill:none;stroke:#000000;" x="269.38" xlink:href="#m17234f2e23" y="237.6294575"/>
     <use style="fill:none;stroke:#000000;" x="270.7316" xlink:href="#m17234f2e23" y="259.6124255"/>
     <use style="fill:none;stroke:#000000;" x="273.88864" xlink:href="#m17234f2e23" y="262.6791935"/>
     <use style="fill:none;stroke:#000000;" x="275.6916" xlink:href="#m17234f2e23" y="254.7444335"/>
     <use style="fill:none;stroke:#000000;" x="276.59432" xlink:href="#m17234f2e23" y="262.6858895"/>
     <use style="fill:none;stroke:#000000;" x="276.59432" xlink:href="#m17234f2e23" y="251.6977535"/>
     <use style="fill:none;stroke:#000000;" x="285.16272" xlink:href="#m17234f2e23" y="249.8898335"/>
     <use style="fill:none;stroke:#000000;" x="289.22" xlink:href="#m17234f2e23" y="242.5778015"/>
     <use style="fill:none;stroke:#000000;" x="290.5716" xlink:href="#m17234f2e23" y="229.7616575"/>
     <use style="fill:none;stroke:#000000;" x="294.18" xlink:href="#m17234f2e23" y="247.4792735"/>
     <use style="fill:none;stroke:#000000;" x="303.64864" xlink:href="#m17234f2e23" y="227.3644895"/>
     <use style="fill:none;stroke:#000000;" x="304.55136" xlink:href="#m17234f2e23" y="250.5661295"/>
     <use style="fill:none;stroke:#000000;" x="308.60864" xlink:href="#m17234f2e23" y="242.6447615"/>
     <use style="fill:none;stroke:#000000;" x="309.51136" xlink:href="#m17234f2e23" y="238.9820495"/>
     <use style="fill:none;stroke:#000000;" x="316.72568" xlink:href="#m17234f2e23" y="240.8368415"/>
     <use style="fill:none;stroke:#000000;" x="329.35136" xlink:href="#m17234f2e23" y="199.9711535"/>
     <use style="fill:none;stroke:#000000;" x="334.31136" xlink:href="#m17234f2e23" y="218.3048015"/>
     <use style="fill:none;stroke:#000000;" x="334.76272" xlink:href="#m17234f2e23" y="225.6302255"/>
     <use style="fill:none;stroke:#000000;" x="338.82" xlink:href="#m17234f2e23" y="224.4249455"/>
     <use style="fill:none;stroke:#000000;" x="339.27136" xlink:href="#m17234f2e23" y="230.5316975"/>
     <use style="fill:none;stroke:#000000;" x="341.07432" xlink:href="#m17234f2e23" y="210.9994655"/>
     <use style="fill:none;stroke:#000000;" x="341.52568" xlink:href="#m17234f2e23" y="204.2833775"/>
     <use style="fill:none;stroke:#000000;" x="369.9316" xlink:href="#m17234f2e23" y="186.6728975"/>
     <use style="fill:none;stroke:#000000;" x="370.38296" xlink:href="#m17234f2e23" y="203.1584495"/>
     <use style="fill:none;stroke:#000000;" x="389.7716" xlink:href="#m17234f2e23" y="214.2135455"/>
     <use style="fill:none;stroke:#000000;" x="390.22296" xlink:href="#m17234f2e23" y="202.0000415"/>
     <use style="fill:none;stroke:#000000;" x="392.92864" xlink:href="#m17234f2e23" y="207.5041535"/>
     <use style="fill:none;stroke:#000000;" x="393.38" xlink:href="#m17234f2e23" y="205.0668095"/>
     <use style="fill:none;stroke:#000000;" x="393.83136" xlink:href="#m17234f2e23" y="203.2321055"/>
     <use style="fill:none;stroke:#000000;" x="398.34" xlink:href="#m17234f2e23" y="224.6191295"/>
     <use style="fill:none;stroke:#000000;" x="405.55432" xlink:href="#m17234f2e23" y="204.4976495"/>
     <use style="fill:none;stroke:#000000;" x="419.98296" xlink:href="#m17234f2e23" y="217.3673615"/>
     <use style="fill:none;stroke:#000000;" x="429.00272" xlink:href="#m17234f2e23" y="204.5713055"/>
    </g>
   </g>
   <g id="line2d_50">
    <path clip-path="url(#p00eafeb89f)" d="M 94.292 321.697738 
L 159.02 294.913738 
L 156.54 296.252938 
L 167.948 288.887338 
L 195.476 266.790538 
L 229.7 259.424937 
L 242.844 264.112138 
L 247.556 250.720137 
L 250.284 255.407338 
L 251.524 252.728938 
L 254.748 248.711338 
L 261.444 250.720137 
L 265.164 262.103338 
L 397.348 204.517738 
" style="fill:none;"/>
    <defs>
     <path d="M 0 3.5 
C 0.928211 3.5 1.81853 3.131218 2.474874 2.474874 
C 3.131218 1.81853 3.5 0.928211 3.5 0 
C 3.5 -0.928211 3.131218 -1.81853 2.474874 -2.474874 
C 1.81853 -3.131218 0.928211 -3.5 0 -3.5 
C -0.928211 -3.5 -1.81853 -3.131218 -2.474874 -2.474874 
C -3.131218 -1.81853 -3.5 -0.928211 -3.5 0 
C -3.5 0.928211 -3.131218 1.81853 -2.474874 2.474874 
C -1.81853 3.131218 -0.928211 3.5 0 3.5 
z
" id="m12ccd3d1d2" style="stroke:#000000;"/>
    </defs>
    <g clip-path="url(#p00eafeb89f)">
     <use style="stroke:#000000;" x="94.292" xlink:href="#m12ccd3d1d2" y="321.6977375"/>
     <use style="stroke:#000000;" x="159.02" xlink:href="#m12ccd3d1d2" y="294.9137375"/>
     <use style="stroke:#000000;" x="156.54" xlink:href="#m12ccd3d1d2" y="296.2529375"/>
     <use style="stroke:#000000;" x="167.948" xlink:href="#m12ccd3d1d2" y="288.8873375"/>
     <use style="stroke:#000000;" x="195.476" xlink:href="#m12ccd3d1d2" y="266.7905375"/>
     <use style="stroke:#000000;" x="229.7" xlink:href="#m12ccd3d1d2" y="259.4249375"/>
     <use style="stroke:#000000;" x="242.844" xlink:href="#m12ccd3d1d2" y="264.1121375"/>
     <use style="stroke:#000000;" x="247.556" xlink:href="#m12ccd3d1d2" y="250.7201375"/>
     <use style="stroke:#000000;" x="250.284" xlink:href="#m12ccd3d1d2" y="255.4073375"/>
     <use style="stroke:#000000;" x="251.524" xlink:href="#m12ccd3d1d2" y="252.7289375"/>
     <use style="stroke:#000000;" x="254.748" xlink:href="#m12ccd3d1d2" y="248.7113375"/>
     <use style="stroke:#000000;" x="261.444" xlink:href="#m12ccd3d1d2" y="250.7201375"/>
     <use style="stroke:#000000;" x="265.164" xlink:href="#m12ccd3d1d2" y="262.1033375"/>
     <use style="stroke:#000000;" x="397.348" xlink:href="#m12ccd3d1d2" y="204.5177375"/>
    </g>
   </g>
   <g id="line2d_51">
    <path clip-path="url(#p00eafeb89f)" d="M 88.093175 293.561844 
L 94.440095 290.725194 
L 98.671374 296.452654 
L 101.315924 295.746876 
L 103.431564 293.610927 
L 105.018294 290.044804 
L 109.778483 297.916677 
L 98.671374 285.739054 
L 103.960474 269.328459 
L 129.348152 255.1249 
L 137.281801 253.007567 
L 133.579431 247.2818 
L 134.108341 242.998052 
L 141.513081 244.450227 
L 143.09981 240.884105 
L 142.5709 250.881772 
L 175.892227 225.275761 
L 190.172796 224.607218 
L 192.817346 214.616321 
L 193.346256 218.903454 
L 211.329194 208.961639 
L 213.973744 203.970421 
L 219.791754 203.989039 
L 214.502654 194.686994 
L 214.502654 188.973074 
L 205.511185 185.373101 
L 205.511185 168.945581 
L 226.138673 187.581829 
L 226.138673 191.867269 
L 240.419242 196.912647 
L 243.063791 182.63631 
L 244.650521 178.355947 
L 246.766161 175.505757 
L 246.237251 182.646465 
L 255.75763 189.81933 
L 256.28654 192.677982 
L 261.04673 178.408415 
L 265.278009 184.135875 
L 289.607867 181.356771 
L 290.665687 178.503196 
L 294.368057 174.229603 
L 312.350995 152.145709 
L 318.169005 152.164326 
L 327.160474 166.477899 
L 324.515924 176.468796 
L 331.391754 177.205039 
L 336.151943 167.220912 
L 336.680853 162.222924 
L 345.143412 132.966164 
L 399.621137 80.286733 
L 394.332038 65.985008 
L 389.571848 66.684015 
L 394.332038 50.985968 
L 407.554787 43.885881 
L 407.554787 52.456761 
L 425.008815 38.227814 
L 434.000284 41.827786 
" style="fill:none;"/>
    <defs>
     <path d="M -0 4.949747 
L 4.949747 0 
L 0 -4.949747 
L -4.949747 -0 
z
" id="m0a94af345c" style="stroke:#000000;stroke-linejoin:miter;"/>
    </defs>
    <g clip-path="url(#p00eafeb89f)">
     <use style="fill:none;stroke:#000000;stroke-linejoin:miter;" x="88.0931753555" xlink:href="#m0a94af345c" y="293.561843661"/>
     <use style="fill:none;stroke:#000000;stroke-linejoin:miter;" x="94.4400947867" xlink:href="#m0a94af345c" y="290.725193803"/>
     <use style="fill:none;stroke:#000000;stroke-linejoin:miter;" x="98.6713744076" xlink:href="#m0a94af345c" y="296.452653898"/>
     <use style="fill:none;stroke:#000000;stroke-linejoin:miter;" x="101.315924171" xlink:href="#m0a94af345c" y="295.746876457"/>
     <use style="fill:none;stroke:#000000;stroke-linejoin:miter;" x="103.431563981" xlink:href="#m0a94af345c" y="293.610926505"/>
     <use style="fill:none;stroke:#000000;stroke-linejoin:miter;" x="105.018293839" xlink:href="#m0a94af345c" y="290.04480404"/>
     <use style="fill:none;stroke:#000000;stroke-linejoin:miter;" x="109.778483412" xlink:href="#m0a94af345c" y="297.916676647"/>
     <use style="fill:none;stroke:#000000;stroke-linejoin:miter;" x="98.6713744076" xlink:href="#m0a94af345c" y="285.739053898"/>
     <use style="fill:none;stroke:#000000;stroke-linejoin:miter;" x="103.960473934" xlink:href="#m0a94af345c" y="269.328459017"/>
     <use style="fill:none;stroke:#000000;stroke-linejoin:miter;" x="129.348151659" xlink:href="#m0a94af345c" y="255.124899585"/>
     <use style="fill:none;stroke:#000000;stroke-linejoin:miter;" x="137.281800948" xlink:href="#m0a94af345c" y="253.007567263"/>
     <use style="fill:none;stroke:#000000;stroke-linejoin:miter;" x="133.57943128" xlink:href="#m0a94af345c" y="247.28179968"/>
     <use style="fill:none;stroke:#000000;stroke-linejoin:miter;" x="134.108341232" xlink:href="#m0a94af345c" y="242.998052192"/>
     <use style="fill:none;stroke:#000000;stroke-linejoin:miter;" x="141.513080569" xlink:href="#m0a94af345c" y="244.450227358"/>
     <use style="fill:none;stroke:#000000;stroke-linejoin:miter;" x="143.099810427" xlink:href="#m0a94af345c" y="240.884104893"/>
     <use style="fill:none;stroke:#000000;stroke-linejoin:miter;" x="142.570900474" xlink:href="#m0a94af345c" y="250.881772382"/>
     <use style="fill:none;stroke:#000000;stroke-linejoin:miter;" x="175.892227488" xlink:href="#m0a94af345c" y="225.275760628"/>
     <use style="fill:none;stroke:#000000;stroke-linejoin:miter;" x="190.172796209" xlink:href="#m0a94af345c" y="224.607218448"/>
     <use style="fill:none;stroke:#000000;stroke-linejoin:miter;" x="192.817345972" xlink:href="#m0a94af345c" y="214.616321007"/>
     <use style="fill:none;stroke:#000000;stroke-linejoin:miter;" x="193.346255924" xlink:href="#m0a94af345c" y="218.903453519"/>
     <use style="fill:none;stroke:#000000;stroke-linejoin:miter;" x="211.329194313" xlink:href="#m0a94af345c" y="208.961638922"/>
     <use style="fill:none;stroke:#000000;stroke-linejoin:miter;" x="213.973744076" xlink:href="#m0a94af345c" y="203.970421481"/>
     <use style="fill:none;stroke:#000000;stroke-linejoin:miter;" x="219.791753555" xlink:href="#m0a94af345c" y="203.989039111"/>
     <use style="fill:none;stroke:#000000;stroke-linejoin:miter;" x="214.502654028" xlink:href="#m0a94af345c" y="194.686993993"/>
     <use style="fill:none;stroke:#000000;stroke-linejoin:miter;" x="214.502654028" xlink:href="#m0a94af345c" y="188.973073993"/>
     <use style="fill:none;stroke:#000000;stroke-linejoin:miter;" x="205.511184834" xlink:href="#m0a94af345c" y="185.373101291"/>
     <use style="fill:none;stroke:#000000;stroke-linejoin:miter;" x="205.511184834" xlink:href="#m0a94af345c" y="168.945581291"/>
     <use style="fill:none;stroke:#000000;stroke-linejoin:miter;" x="226.138672986" xlink:href="#m0a94af345c" y="187.581829254"/>
     <use style="fill:none;stroke:#000000;stroke-linejoin:miter;" x="226.138672986" xlink:href="#m0a94af345c" y="191.867269254"/>
     <use style="fill:none;stroke:#000000;stroke-linejoin:miter;" x="240.419241706" xlink:href="#m0a94af345c" y="196.912647073"/>
     <use style="fill:none;stroke:#000000;stroke-linejoin:miter;" x="243.063791469" xlink:href="#m0a94af345c" y="182.636309633"/>
     <use style="fill:none;stroke:#000000;stroke-linejoin:miter;" x="244.650521327" xlink:href="#m0a94af345c" y="178.355947168"/>
     <use style="fill:none;stroke:#000000;stroke-linejoin:miter;" x="246.766161137" xlink:href="#m0a94af345c" y="175.505757216"/>
     <use style="fill:none;stroke:#000000;stroke-linejoin:miter;" x="246.237251185" xlink:href="#m0a94af345c" y="182.646464704"/>
     <use style="fill:none;stroke:#000000;stroke-linejoin:miter;" x="255.757630332" xlink:href="#m0a94af345c" y="189.819329917"/>
     <use style="fill:none;stroke:#000000;stroke-linejoin:miter;" x="256.286540284" xlink:href="#m0a94af345c" y="192.677982429"/>
     <use style="fill:none;stroke:#000000;stroke-linejoin:miter;" x="261.046729858" xlink:href="#m0a94af345c" y="178.408415036"/>
     <use style="fill:none;stroke:#000000;stroke-linejoin:miter;" x="265.278009479" xlink:href="#m0a94af345c" y="184.13587513"/>
     <use style="fill:none;stroke:#000000;stroke-linejoin:miter;" x="289.607867299" xlink:href="#m0a94af345c" y="181.356770675"/>
     <use style="fill:none;stroke:#000000;stroke-linejoin:miter;" x="290.665687204" xlink:href="#m0a94af345c" y="178.503195699"/>
     <use style="fill:none;stroke:#000000;stroke-linejoin:miter;" x="294.368056872" xlink:href="#m0a94af345c" y="174.229603282"/>
     <use style="fill:none;stroke:#000000;stroke-linejoin:miter;" x="312.350995261" xlink:href="#m0a94af345c" y="152.145708685"/>
     <use style="fill:none;stroke:#000000;stroke-linejoin:miter;" x="318.169004739" xlink:href="#m0a94af345c" y="152.164326315"/>
     <use style="fill:none;stroke:#000000;stroke-linejoin:miter;" x="327.160473934" xlink:href="#m0a94af345c" y="166.477899017"/>
     <use style="fill:none;stroke:#000000;stroke-linejoin:miter;" x="324.515924171" xlink:href="#m0a94af345c" y="176.468796457"/>
     <use style="fill:none;stroke:#000000;stroke-linejoin:miter;" x="331.391753555" xlink:href="#m0a94af345c" y="177.205039111"/>
     <use style="fill:none;stroke:#000000;stroke-linejoin:miter;" x="336.151943128" xlink:href="#m0a94af345c" y="167.220911718"/>
     <use style="fill:none;stroke:#000000;stroke-linejoin:miter;" x="336.680853081" xlink:href="#m0a94af345c" y="162.22292423"/>
     <use style="fill:none;stroke:#000000;stroke-linejoin:miter;" x="345.143412322" xlink:href="#m0a94af345c" y="132.966164419"/>
     <use style="fill:none;stroke:#000000;stroke-linejoin:miter;" x="399.621137441" xlink:href="#m0a94af345c" y="80.2867331398"/>
     <use style="fill:none;stroke:#000000;stroke-linejoin:miter;" x="394.332037915" xlink:href="#m0a94af345c" y="65.9850080213"/>
     <use style="fill:none;stroke:#000000;stroke-linejoin:miter;" x="389.571848341" xlink:href="#m0a94af345c" y="66.6840154147"/>
     <use style="fill:none;stroke:#000000;stroke-linejoin:miter;" x="394.332037915" xlink:href="#m0a94af345c" y="50.9859680213"/>
     <use style="fill:none;stroke:#000000;stroke-linejoin:miter;" x="407.55478673" xlink:href="#m0a94af345c" y="43.8858808175"/>
     <use style="fill:none;stroke:#000000;stroke-linejoin:miter;" x="407.55478673" xlink:href="#m0a94af345c" y="52.4567608175"/>
     <use style="fill:none;stroke:#000000;stroke-linejoin:miter;" x="425.008815166" xlink:href="#m0a94af345c" y="38.2278137085"/>
     <use style="fill:none;stroke:#000000;stroke-linejoin:miter;" x="434.00028436" xlink:href="#m0a94af345c" y="41.82778641"/>
    </g>
   </g>
   <g id="line2d_52">
    <path clip-path="url(#p00eafeb89f)" d="M 94.292 249.380938 
L 139.676 248.711338 
L 195.476 211.213738 
L 229.7 186.438537 
L 242.844 192.464937 
L 250.284 185.099337 
L 251.524 181.081738 
L 254.252 177.733737 
L 254.748 186.438537 
L 261.444 181.751337 
L 265.164 185.099337 
" style="fill:none;"/>
    <defs>
     <path d="M -0 4.949747 
L 4.949747 0 
L 0 -4.949747 
L -4.949747 -0 
z
" id="m230f37f4af" style="stroke:#000000;stroke-linejoin:miter;"/>
    </defs>
    <g clip-path="url(#p00eafeb89f)">
     <use style="stroke:#000000;stroke-linejoin:miter;" x="94.292" xlink:href="#m230f37f4af" y="249.3809375"/>
     <use style="stroke:#000000;stroke-linejoin:miter;" x="139.676" xlink:href="#m230f37f4af" y="248.7113375"/>
     <use style="stroke:#000000;stroke-linejoin:miter;" x="195.476" xlink:href="#m230f37f4af" y="211.2137375"/>
     <use style="stroke:#000000;stroke-linejoin:miter;" x="229.7" xlink:href="#m230f37f4af" y="186.4385375"/>
     <use style="stroke:#000000;stroke-linejoin:miter;" x="242.844" xlink:href="#m230f37f4af" y="192.4649375"/>
     <use style="stroke:#000000;stroke-linejoin:miter;" x="250.284" xlink:href="#m230f37f4af" y="185.0993375"/>
     <use style="stroke:#000000;stroke-linejoin:miter;" x="251.524" xlink:href="#m230f37f4af" y="181.0817375"/>
     <use style="stroke:#000000;stroke-linejoin:miter;" x="254.252" xlink:href="#m230f37f4af" y="177.7337375"/>
     <use style="stroke:#000000;stroke-linejoin:miter;" x="254.748" xlink:href="#m230f37f4af" y="186.4385375"/>
     <use style="stroke:#000000;stroke-linejoin:miter;" x="261.444" xlink:href="#m230f37f4af" y="181.7513375"/>
     <use style="stroke:#000000;stroke-linejoin:miter;" x="265.164" xlink:href="#m230f37f4af" y="185.0993375"/>
    </g>
   </g>
   <g id="line2d_53">
    <path clip-path="url(#p00eafeb89f)" d="M 36.26 349.820938 
L 38.74 347.681422 
L 41.22 345.911946 
L 43.7 344.377192 
L 46.18 342.842756 
L 48.66 341.308775 
L 51.14 339.775387 
L 53.62 338.242736 
L 56.1 336.710956 
L 58.58 335.180189 
L 61.06 333.650576 
L 63.54 332.122258 
L 66.02 330.595366 
L 68.5 329.070048 
L 70.98 327.546437 
L 73.46 326.024675 
L 75.94 324.558196 
L 78.42 323.135289 
L 80.9 321.74539 
L 83.38 320.452868 
L 85.86 319.232055 
L 88.34 318.020641 
L 90.82 316.820621 
L 93.3 315.633809 
L 95.78 314.521784 
L 98.26 313.504059 
L 100.74 312.491 
L 103.22 311.483402 
L 105.7 310.482093 
L 108.18 309.487872 
L 110.66 308.499391 
L 113.14 307.513211 
L 115.62 306.530535 
L 118.1 305.552199 
L 120.58 304.57912 
L 123.06 303.612828 
L 125.54 302.653393 
L 128.02 301.700603 
L 130.5 300.754958 
L 132.98 299.816451 
L 135.46 298.885392 
L 137.94 297.961855 
L 140.42 297.045977 
L 142.9 296.137823 
L 145.38 295.237551 
L 147.86 294.345142 
L 150.34 293.460848 
L 152.82 292.584491 
L 155.3 291.716309 
L 157.78 290.856158 
L 160.26 290.004152 
L 162.74 289.160361 
L 165.22 288.32459 
L 167.7 287.497014 
L 170.18 286.6776 
L 172.66 285.866279 
L 175.14 285.063187 
L 177.62 284.268164 
L 180.1 283.481504 
L 182.58 282.703217 
L 185.06 281.932571 
L 187.54 281.169997 
L 190.02 280.415746 
L 192.5 279.669917 
L 194.98 278.931741 
L 197.46 278.201461 
L 199.94 277.479355 
L 202.42 276.765425 
L 204.9 276.059514 
L 207.38 275.361671 
L 209.86 274.671849 
L 212.34 273.990122 
L 214.82 273.316469 
L 217.3 272.651049 
L 219.78 271.993803 
L 222.26 271.344863 
L 224.74 270.704395 
L 227.22 270.071951 
L 229.7 269.447473 
L 232.18 268.831381 
L 234.66 268.223348 
L 237.14 267.6237 
L 239.62 267.032896 
L 242.1 266.450481 
L 244.58 265.876288 
L 247.06 265.310944 
L 249.54 264.754548 
L 252.02 264.207316 
L 254.5 263.668862 
L 256.98 263.13911 
L 259.46 262.618058 
L 261.94 262.100125 
L 264.42 261.582997 
L 266.9 261.067228 
L 269.38 260.553272 
L 271.86 260.041498 
L 274.34 259.532246 
L 276.82 259.025796 
L 279.3 258.522396 
L 281.78 258.022265 
" style="fill:none;stroke:#1f78b4;stroke-linecap:round;stroke-width:1.75;"/>
   </g>
   <g id="line2d_54">
    <path clip-path="url(#p00eafeb89f)" d="M 284.26 257.525368 
L 286.74 257.029231 
L 289.22 256.533095 
L 291.7 256.036958 
L 294.18 255.540821 
L 296.66 255.044685 
L 299.14 254.548548 
L 301.62 254.052411 
L 304.1 253.556274 
L 306.58 253.060138 
L 309.06 252.564001 
L 311.54 252.067864 
L 314.02 251.571728 
L 316.5 251.075591 
L 318.98 250.579454 
L 321.46 250.083318 
L 323.94 249.587181 
L 326.42 249.091044 
L 328.9 248.594908 
L 331.38 248.098771 
L 333.86 247.602634 
L 336.34 247.106497 
L 338.82 246.610361 
L 341.3 246.114224 
L 343.78 245.618087 
L 346.26 245.121951 
L 348.74 244.625814 
L 351.22 244.129677 
L 353.7 243.633541 
L 356.18 243.137404 
L 358.66 242.641267 
L 361.14 242.145131 
L 363.62 241.648994 
L 366.1 241.152857 
L 368.58 240.656721 
L 371.06 240.160584 
L 373.54 239.664447 
L 376.02 239.16831 
L 378.5 238.672174 
L 380.98 238.176037 
L 383.46 237.6799 
L 385.94 237.183764 
L 388.42 236.687627 
L 390.9 236.19149 
L 393.38 235.695354 
L 395.86 235.199217 
L 398.34 234.70308 
L 400.82 234.206944 
L 403.3 233.710807 
L 405.78 233.21467 
L 408.26 232.718533 
L 410.74 232.222397 
L 413.22 231.72626 
L 415.7 231.230123 
L 418.18 230.733987 
L 420.66 230.23785 
L 423.14 229.741713 
L 425.62 229.245577 
L 428.1 228.74944 
L 430.58 228.253303 
" style="fill:none;stroke:#1f78b4;stroke-dasharray:6.000000,6.000000;stroke-dashoffset:0.0;stroke-width:1.75;"/>
   </g>
   <g id="line2d_55">
    <path clip-path="url(#p00eafeb89f)" d="M 36.26 238.803172 
L 58.58 238.702102 
L 80.9 238.400037 
L 105.7 237.832864 
L 130.5 237.02952 
L 155.3 236.000772 
L 180.1 234.760105 
L 207.38 233.169511 
L 237.14 231.191591 
L 266.9 228.993126 
L 301.62 226.197169 
L 341.3 222.768767 
L 393.38 218.032353 
L 420.66 215.50171 
L 420.66 215.50171 
" style="fill:none;stroke:#a6cee3;stroke-linecap:round;stroke-width:1.75;"/>
   </g>
   <g id="line2d_56">
    <path clip-path="url(#p00eafeb89f)" d="M 36.26 349.820938 
L 38.74 346.234467 
L 41.22 343.041123 
L 43.7 340.286893 
L 46.18 337.533453 
L 48.66 334.781175 
L 51.14 332.030431 
L 53.62 329.281595 
L 56.1 326.535038 
L 58.58 323.791142 
L 61.06 321.050252 
L 63.54 318.31276 
L 66.02 315.579036 
L 68.5 312.84944 
L 70.98 310.124346 
L 73.46 307.404111 
L 75.94 304.689105 
L 78.42 301.979689 
L 80.9 299.275607 
L 83.38 296.576907 
L 85.86 294.046996 
L 88.34 291.827742 
L 90.82 289.636164 
L 93.3 287.561643 
L 95.78 285.748146 
L 98.26 283.95143 
L 100.74 282.175521 
L 103.22 280.415231 
L 105.7 278.656391 
L 108.18 276.899767 
L 110.66 275.146379 
L 113.14 273.397113 
L 115.62 271.652769 
L 118.1 269.914089 
L 120.58 268.183133 
L 123.06 266.460568 
L 125.54 264.7467 
L 128.02 263.041569 
L 130.5 261.345746 
L 132.98 259.659738 
L 135.46 257.983482 
L 137.94 256.317686 
L 140.42 254.662259 
L 142.9 253.017653 
L 145.38 251.384067 
L 147.86 249.761627 
L 150.34 248.150602 
L 152.82 246.550926 
L 155.3 244.963088 
L 157.78 243.387274 
L 160.26 241.823505 
L 162.74 240.271917 
L 165.22 238.732349 
L 167.7 237.205074 
L 170.18 235.689382 
L 172.66 234.185796 
L 175.14 232.694204 
L 177.62 231.215058 
L 180.1 229.748487 
L 182.58 228.294277 
L 185.06 226.852631 
L 187.54 225.422944 
L 190.02 224.005796 
L 192.5 222.601515 
L 194.98 221.209854 
L 197.46 219.830942 
L 199.94 218.464669 
L 202.42 217.110983 
L 204.9 215.770048 
L 207.38 214.441812 
L 209.86 213.126395 
L 212.34 211.823859 
L 214.82 210.534123 
L 217.3 209.257391 
L 219.78 207.99421 
L 222.26 206.744629 
L 224.74 205.507898 
L 227.22 204.284783 
L 229.7 203.074359 
L 232.18 201.876523 
L 234.66 200.694183 
L 237.14 199.523954 
L 239.62 198.367344 
L 242.1 197.22524 
L 244.58 196.097561 
L 247.06 194.984194 
L 249.54 193.883934 
L 252.02 192.797519 
L 254.5 191.726178 
L 256.98 190.669958 
L 259.46 189.627817 
L 261.94 188.600811 
L 264.42 187.589551 
L 266.9 186.593036 
L 269.38 185.611842 
L 271.86 184.637752 
L 274.34 183.668773 
L 276.82 182.706877 
L 279.3 181.753152 
L 281.78 180.808195 
L 284.26 179.872278 
" style="fill:none;stroke:#33a02c;stroke-linecap:round;stroke-width:1.75;"/>
   </g>
   <g id="line2d_57">
    <path clip-path="url(#p00eafeb89f)" d="M 286.74 178.941455 
L 289.22 178.010644 
L 291.7 177.079833 
L 294.18 176.149023 
L 296.66 175.218212 
L 299.14 174.287401 
L 301.62 173.35659 
L 304.1 172.42578 
L 306.58 171.494969 
L 309.06 170.564158 
L 311.54 169.633347 
L 314.02 168.702536 
L 316.5 167.771726 
L 318.98 166.840915 
L 321.46 165.910104 
L 323.94 164.979293 
L 326.42 164.048482 
L 328.9 163.117672 
L 331.38 162.186861 
L 333.86 161.25605 
L 336.34 160.325239 
L 338.82 159.394429 
L 341.3 158.463618 
L 343.78 157.532807 
L 346.26 156.601996 
L 348.74 155.671185 
L 351.22 154.740375 
L 353.7 153.809564 
L 356.18 152.878753 
L 358.66 151.947942 
L 361.14 151.017131 
L 363.62 150.086321 
L 366.1 149.15551 
L 368.58 148.224699 
L 371.06 147.293888 
L 373.54 146.363078 
L 376.02 145.432267 
L 378.5 144.501456 
L 380.98 143.570645 
L 383.46 142.639834 
L 385.94 141.709024 
L 388.42 140.778213 
L 390.9 139.847402 
L 393.38 138.916591 
L 395.86 137.98578 
L 398.34 137.05497 
L 400.82 136.124159 
L 403.3 135.193348 
L 405.78 134.262537 
L 408.26 133.331727 
L 410.74 132.400916 
L 413.22 131.470105 
L 415.7 130.539294 
L 418.18 129.608483 
L 420.66 128.677673 
L 423.14 127.746862 
L 425.62 126.816051 
L 428.1 125.88524 
L 430.58 124.954429 
L 433.06 124.023619 
" style="fill:none;stroke:#33a02c;stroke-dasharray:6.000000,6.000000;stroke-dashoffset:0.0;stroke-width:1.75;"/>
   </g>
   <g id="line2d_58">
    <path clip-path="url(#p00eafeb89f)" d="M 36.26 349.820938 
L 43.7 339.061697 
L 53.62 327.999165 
L 98.26 278.606458 
L 125.54 248.73026 
L 132.98 240.638627 
L 137.94 236.047463 
L 147.86 227.28325 
L 150.34 225.302348 
L 165.22 214.530105 
L 199.94 190.007222 
L 219.78 176.262201 
L 237.14 164.477526 
L 254.5 152.947197 
L 271.86 141.69019 
L 289.22 130.722896 
L 306.58 120.05123 
L 323.94 109.676036 
L 338.82 101.024951 
L 353.7 92.59877 
L 368.58 84.401028 
L 383.46 76.431853 
L 398.34 68.693845 
L 413.22 61.194859 
L 428.1 53.932108 
L 442.98 46.913745 
L 457.86 40.147451 
L 472.74 33.631418 
L 480.18 30.473128 
L 480.18 30.473128 
" style="fill:none;stroke:#b2df8a;stroke-linecap:round;stroke-width:1.75;"/>
   </g>
   <g id="patch_3">
    <path d="M 36.26 349.820938 
L 36.26 15.020938 
" style="fill:none;"/>
   </g>
   <g id="patch_4">
    <path d="M 36.26 349.820938 
L 482.66 349.820938 
" style="fill:none;"/>
   </g>
   <g id="patch_5">
    <path d="M 482.66 349.820938 
L 482.66 15.020938 
" style="fill:none;"/>
   </g>
   <g id="patch_6">
    <path d="M 36.26 15.020938 
L 482.66 15.020938 
" style="fill:none;"/>
   </g>
   <g id="text_19">
    <!-- Oldham's arrival data with PREM travel time curves -->
    <defs>
     <path d="M 40.578125 0 
L 40.578125 7.625 
Q 34.515625 -1.171875 24.125 -1.171875 
Q 19.53125 -1.171875 15.546875 0.578125 
Q 11.578125 2.34375 9.640625 5 
Q 7.71875 7.671875 6.9375 11.53125 
Q 6.390625 14.109375 6.390625 19.734375 
L 6.390625 51.859375 
L 15.1875 51.859375 
L 15.1875 23.09375 
Q 15.1875 16.21875 15.71875 13.8125 
Q 16.546875 10.359375 19.234375 8.375 
Q 21.921875 6.390625 25.875 6.390625 
Q 29.828125 6.390625 33.296875 8.421875 
Q 36.765625 10.453125 38.203125 13.9375 
Q 39.65625 17.4375 39.65625 24.078125 
L 39.65625 51.859375 
L 48.4375 51.859375 
L 48.4375 0 
z
" id="ArialMT-75"/>
     <path d="M 7.859375 0 
L 7.859375 71.578125 
L 39.59375 71.578125 
Q 49.171875 71.578125 54.140625 69.640625 
Q 59.125 67.71875 62.109375 62.828125 
Q 65.09375 57.953125 65.09375 52.046875 
Q 65.09375 44.4375 60.15625 39.203125 
Q 55.21875 33.984375 44.921875 32.5625 
Q 48.6875 30.765625 50.640625 29 
Q 54.78125 25.203125 58.5 19.484375 
L 70.953125 0 
L 59.03125 0 
L 49.5625 14.890625 
Q 45.40625 21.34375 42.71875 24.75 
Q 40.046875 28.171875 37.921875 29.53125 
Q 35.796875 30.90625 33.59375 31.453125 
Q 31.984375 31.78125 28.328125 31.78125 
L 17.328125 31.78125 
L 17.328125 0 
z
M 17.328125 39.984375 
L 37.703125 39.984375 
Q 44.1875 39.984375 47.84375 41.328125 
Q 51.515625 42.671875 53.421875 45.625 
Q 55.328125 48.578125 55.328125 52.046875 
Q 55.328125 57.125 51.640625 60.390625 
Q 47.953125 63.671875 39.984375 63.671875 
L 17.328125 63.671875 
z
" id="ArialMT-52"/>
     <path d="M 6.59375 0 
L 6.59375 71.578125 
L 15.375 71.578125 
L 15.375 45.90625 
Q 21.53125 53.03125 30.90625 53.03125 
Q 36.671875 53.03125 40.921875 50.75 
Q 45.171875 48.484375 47 44.484375 
Q 48.828125 40.484375 48.828125 32.859375 
L 48.828125 0 
L 40.046875 0 
L 40.046875 32.859375 
Q 40.046875 39.453125 37.1875 42.453125 
Q 34.328125 45.453125 29.109375 45.453125 
Q 25.203125 45.453125 21.75 43.421875 
Q 18.3125 41.40625 16.84375 37.9375 
Q 15.375 34.46875 15.375 28.375 
L 15.375 0 
z
" id="ArialMT-68"/>
     <path d="M 7.421875 0 
L 7.421875 71.578125 
L 21.6875 71.578125 
L 38.625 20.90625 
Q 40.96875 13.8125 42.046875 10.296875 
Q 43.265625 14.203125 45.84375 21.78125 
L 62.984375 71.578125 
L 75.734375 71.578125 
L 75.734375 0 
L 66.609375 0 
L 66.609375 59.90625 
L 45.796875 0 
L 37.25 0 
L 16.546875 60.9375 
L 16.546875 0 
z
" id="ArialMT-4d"/>
     <path d="M 21 0 
L 1.265625 51.859375 
L 10.546875 51.859375 
L 21.6875 20.796875 
Q 23.484375 15.765625 25 10.359375 
Q 26.171875 14.453125 28.265625 20.21875 
L 39.796875 51.859375 
L 48.828125 51.859375 
L 29.203125 0 
z
" id="ArialMT-76"/>
     <path d="M 16.15625 0 
L 0.296875 51.859375 
L 9.375 51.859375 
L 17.625 21.921875 
L 20.703125 10.796875 
Q 20.90625 11.625 23.390625 21.484375 
L 31.640625 51.859375 
L 40.671875 51.859375 
L 48.4375 21.78125 
L 51.03125 11.859375 
L 54 21.875 
L 62.890625 51.859375 
L 71.4375 51.859375 
L 55.21875 0 
L 46.09375 0 
L 37.84375 31.0625 
L 35.84375 39.890625 
L 25.34375 0 
z
" id="ArialMT-77"/>
     <path d="M 7.71875 0 
L 7.71875 71.578125 
L 34.71875 71.578125 
Q 41.84375 71.578125 45.609375 70.90625 
Q 50.875 70.015625 54.4375 67.546875 
Q 58.015625 65.09375 60.1875 60.640625 
Q 62.359375 56.203125 62.359375 50.875 
Q 62.359375 41.75 56.546875 35.421875 
Q 50.734375 29.109375 35.546875 29.109375 
L 17.1875 29.109375 
L 17.1875 0 
z
M 17.1875 37.546875 
L 35.6875 37.546875 
Q 44.875 37.546875 48.734375 40.96875 
Q 52.59375 44.390625 52.59375 50.59375 
Q 52.59375 55.078125 50.3125 58.265625 
Q 48.046875 61.46875 44.34375 62.5 
Q 41.9375 63.140625 35.5 63.140625 
L 17.1875 63.140625 
z
" id="ArialMT-50"/>
     <path d="M 6.640625 46.234375 
L 4.390625 59.625 
L 4.390625 71.578125 
L 14.40625 71.578125 
L 14.40625 59.625 
L 12.0625 46.234375 
z
" id="ArialMT-27"/>
     <path d="M 40.234375 0 
L 40.234375 6.546875 
Q 35.296875 -1.171875 25.734375 -1.171875 
Q 19.53125 -1.171875 14.328125 2.25 
Q 9.125 5.671875 6.265625 11.796875 
Q 3.421875 17.921875 3.421875 25.875 
Q 3.421875 33.640625 6 39.96875 
Q 8.59375 46.296875 13.765625 49.65625 
Q 18.953125 53.03125 25.34375 53.03125 
Q 30.03125 53.03125 33.6875 51.046875 
Q 37.359375 49.078125 39.65625 45.90625 
L 39.65625 71.578125 
L 48.390625 71.578125 
L 48.390625 0 
z
M 12.453125 25.875 
Q 12.453125 15.921875 16.640625 10.984375 
Q 20.84375 6.0625 26.5625 6.0625 
Q 32.328125 6.0625 36.34375 10.765625 
Q 40.375 15.484375 40.375 25.140625 
Q 40.375 35.796875 36.265625 40.765625 
Q 32.171875 45.75 26.171875 45.75 
Q 20.3125 45.75 16.375 40.96875 
Q 12.453125 36.1875 12.453125 25.875 
" id="ArialMT-64"/>
     <path d="M 4.828125 34.859375 
Q 4.828125 52.6875 14.390625 62.765625 
Q 23.96875 72.859375 39.109375 72.859375 
Q 49.03125 72.859375 56.984375 68.109375 
Q 64.9375 63.375 69.109375 54.90625 
Q 73.296875 46.4375 73.296875 35.6875 
Q 73.296875 24.8125 68.890625 16.21875 
Q 64.5 7.625 56.4375 3.203125 
Q 48.390625 -1.21875 39.0625 -1.21875 
Q 28.953125 -1.21875 20.984375 3.65625 
Q 13.03125 8.546875 8.921875 16.984375 
Q 4.828125 25.4375 4.828125 34.859375 
M 14.59375 34.71875 
Q 14.59375 21.78125 21.546875 14.328125 
Q 28.515625 6.890625 39.015625 6.890625 
Q 49.703125 6.890625 56.609375 14.40625 
Q 63.53125 21.921875 63.53125 35.75 
Q 63.53125 44.484375 60.578125 51 
Q 57.625 57.515625 51.921875 61.109375 
Q 46.234375 64.703125 39.15625 64.703125 
Q 29.109375 64.703125 21.84375 57.78125 
Q 14.59375 50.875 14.59375 34.71875 
" id="ArialMT-4f"/>
    </defs>
    <g style="fill:#262626;" transform="translate(100.19359375 10.0209375)scale(0.14 -0.14)">
     <use xlink:href="#ArialMT-4f"/>
     <use x="77.783203125" xlink:href="#ArialMT-6c"/>
     <use x="100.0" xlink:href="#ArialMT-64"/>
     <use x="155.615234375" xlink:href="#ArialMT-68"/>
     <use x="211.23046875" xlink:href="#ArialMT-61"/>
     <use x="266.845703125" xlink:href="#ArialMT-6d"/>
     <use x="350.146484375" xlink:href="#ArialMT-27"/>
     <use x="369.23828125" xlink:href="#ArialMT-73"/>
     <use x="419.23828125" xlink:href="#ArialMT-20"/>
     <use x="447.021484375" xlink:href="#ArialMT-61"/>
     <use x="502.63671875" xlink:href="#ArialMT-72"/>
     <use x="535.9375" xlink:href="#ArialMT-72"/>
     <use x="569.23828125" xlink:href="#ArialMT-69"/>
     <use x="591.455078125" xlink:href="#ArialMT-76"/>
     <use x="641.455078125" xlink:href="#ArialMT-61"/>
     <use x="697.0703125" xlink:href="#ArialMT-6c"/>
     <use x="719.287109375" xlink:href="#ArialMT-20"/>
     <use x="747.0703125" xlink:href="#ArialMT-64"/>
     <use x="802.685546875" xlink:href="#ArialMT-61"/>
     <use x="858.30078125" xlink:href="#ArialMT-74"/>
     <use x="886.083984375" xlink:href="#ArialMT-61"/>
     <use x="941.69921875" xlink:href="#ArialMT-20"/>
     <use x="969.482421875" xlink:href="#ArialMT-77"/>
     <use x="1041.69921875" xlink:href="#ArialMT-69"/>
     <use x="1063.916015625" xlink:href="#ArialMT-74"/>
     <use x="1091.69921875" xlink:href="#ArialMT-68"/>
     <use x="1147.314453125" xlink:href="#ArialMT-20"/>
     <use x="1175.09765625" xlink:href="#ArialMT-50"/>
     <use x="1241.796875" xlink:href="#ArialMT-52"/>
     <use x="1314.013671875" xlink:href="#ArialMT-45"/>
     <use x="1380.712890625" xlink:href="#ArialMT-4d"/>
     <use x="1464.013671875" xlink:href="#ArialMT-20"/>
     <use x="1491.796875" xlink:href="#ArialMT-74"/>
     <use x="1519.580078125" xlink:href="#ArialMT-72"/>
     <use x="1552.880859375" xlink:href="#ArialMT-61"/>
     <use x="1608.49609375" xlink:href="#ArialMT-76"/>
     <use x="1658.49609375" xlink:href="#ArialMT-65"/>
     <use x="1714.111328125" xlink:href="#ArialMT-6c"/>
     <use x="1736.328125" xlink:href="#ArialMT-20"/>
     <use x="1764.111328125" xlink:href="#ArialMT-74"/>
     <use x="1791.89453125" xlink:href="#ArialMT-69"/>
     <use x="1814.111328125" xlink:href="#ArialMT-6d"/>
     <use x="1897.412109375" xlink:href="#ArialMT-65"/>
     <use x="1953.02734375" xlink:href="#ArialMT-20"/>
     <use x="1980.810546875" xlink:href="#ArialMT-63"/>
     <use x="2030.810546875" xlink:href="#ArialMT-75"/>
     <use x="2086.42578125" xlink:href="#ArialMT-72"/>
     <use x="2119.7265625" xlink:href="#ArialMT-76"/>
     <use x="2169.7265625" xlink:href="#ArialMT-65"/>
     <use x="2225.341796875" xlink:href="#ArialMT-73"/>
    </g>
   </g>
   <g id="legend_1">
    <g id="line2d_59">
     <path d="M 45.26 27.67875 
L 65.26 27.67875 
" style="fill:none;"/>
    </g>
    <g id="line2d_60">
     <g>
      <use style="fill:none;stroke:#000000;" x="55.26" xlink:href="#m17234f2e23" y="27.67875"/>
     </g>
    </g>
    <g id="text_20">
     <!-- Primary Non-Averaged -->
     <defs>
      <path d="M 6.203125 -19.96875 
L 5.21875 -11.71875 
Q 8.109375 -12.5 10.25 -12.5 
Q 13.1875 -12.5 14.9375 -11.515625 
Q 16.703125 -10.546875 17.828125 -8.796875 
Q 18.65625 -7.46875 20.515625 -2.25 
Q 20.75 -1.515625 21.296875 -0.09375 
L 1.609375 51.859375 
L 11.078125 51.859375 
L 21.875 21.828125 
Q 23.96875 16.109375 25.640625 9.8125 
Q 27.15625 15.875 29.25 21.625 
L 40.328125 51.859375 
L 49.125 51.859375 
L 29.390625 -0.875 
Q 26.21875 -9.421875 24.46875 -12.640625 
Q 22.125 -17 19.09375 -19.015625 
Q 16.0625 -21.046875 11.859375 -21.046875 
Q 9.328125 -21.046875 6.203125 -19.96875 
" id="ArialMT-79"/>
      <path d="M -0.140625 0 
L 27.34375 71.578125 
L 37.546875 71.578125 
L 66.84375 0 
L 56.0625 0 
L 47.703125 21.6875 
L 17.78125 21.6875 
L 9.90625 0 
z
M 20.515625 29.390625 
L 44.78125 29.390625 
L 37.3125 49.21875 
Q 33.890625 58.25 32.234375 64.0625 
Q 30.859375 57.171875 28.375 50.390625 
z
" id="ArialMT-41"/>
      <path d="M 3.171875 21.484375 
L 3.171875 30.328125 
L 30.171875 30.328125 
L 30.171875 21.484375 
z
" id="ArialMT-2d"/>
      <path d="M 4.984375 -4.296875 
L 13.53125 -5.5625 
Q 14.0625 -9.515625 16.5 -11.328125 
Q 19.78125 -13.765625 25.4375 -13.765625 
Q 31.546875 -13.765625 34.859375 -11.328125 
Q 38.1875 -8.890625 39.359375 -4.5 
Q 40.046875 -1.8125 39.984375 6.78125 
Q 34.234375 0 25.640625 0 
Q 14.9375 0 9.078125 7.71875 
Q 3.21875 15.4375 3.21875 26.21875 
Q 3.21875 33.640625 5.90625 39.90625 
Q 8.59375 46.1875 13.6875 49.609375 
Q 18.796875 53.03125 25.6875 53.03125 
Q 34.859375 53.03125 40.828125 45.609375 
L 40.828125 51.859375 
L 48.921875 51.859375 
L 48.921875 7.03125 
Q 48.921875 -5.078125 46.453125 -10.125 
Q 44 -15.1875 38.640625 -18.109375 
Q 33.296875 -21.046875 25.484375 -21.046875 
Q 16.21875 -21.046875 10.5 -16.875 
Q 4.78125 -12.703125 4.984375 -4.296875 
M 12.25 26.859375 
Q 12.25 16.65625 16.296875 11.96875 
Q 20.359375 7.28125 26.46875 7.28125 
Q 32.515625 7.28125 36.609375 11.9375 
Q 40.71875 16.609375 40.71875 26.5625 
Q 40.71875 36.078125 36.5 40.90625 
Q 32.28125 45.75 26.3125 45.75 
Q 20.453125 45.75 16.34375 40.984375 
Q 12.25 36.234375 12.25 26.859375 
" id="ArialMT-67"/>
      <path d="M 7.625 0 
L 7.625 71.578125 
L 17.328125 71.578125 
L 54.9375 15.375 
L 54.9375 71.578125 
L 64.015625 71.578125 
L 64.015625 0 
L 54.296875 0 
L 16.703125 56.25 
L 16.703125 0 
z
" id="ArialMT-4e"/>
      <path d="M 3.328125 25.921875 
Q 3.328125 40.328125 11.328125 47.265625 
Q 18.015625 53.03125 27.640625 53.03125 
Q 38.328125 53.03125 45.109375 46.015625 
Q 51.90625 39.015625 51.90625 26.65625 
Q 51.90625 16.65625 48.90625 10.90625 
Q 45.90625 5.171875 40.15625 2 
Q 34.421875 -1.171875 27.640625 -1.171875 
Q 16.75 -1.171875 10.03125 5.8125 
Q 3.328125 12.796875 3.328125 25.921875 
M 12.359375 25.921875 
Q 12.359375 15.96875 16.703125 11.015625 
Q 21.046875 6.0625 27.640625 6.0625 
Q 34.1875 6.0625 38.53125 11.03125 
Q 42.875 16.015625 42.875 26.21875 
Q 42.875 35.84375 38.5 40.796875 
Q 34.125 45.75 27.640625 45.75 
Q 21.046875 45.75 16.703125 40.8125 
Q 12.359375 35.890625 12.359375 25.921875 
" id="ArialMT-6f"/>
     </defs>
     <g style="fill:#262626;" transform="translate(73.26 31.17875)scale(0.1 -0.1)">
      <use xlink:href="#ArialMT-50"/>
      <use x="66.69921875" xlink:href="#ArialMT-72"/>
      <use x="100.0" xlink:href="#ArialMT-69"/>
      <use x="122.216796875" xlink:href="#ArialMT-6d"/>
      <use x="205.517578125" xlink:href="#ArialMT-61"/>
      <use x="261.1328125" xlink:href="#ArialMT-72"/>
      <use x="294.43359375" xlink:href="#ArialMT-79"/>
      <use x="344.43359375" xlink:href="#ArialMT-20"/>
      <use x="372.216796875" xlink:href="#ArialMT-4e"/>
      <use x="444.43359375" xlink:href="#ArialMT-6f"/>
      <use x="500.048828125" xlink:href="#ArialMT-6e"/>
      <use x="555.6640625" xlink:href="#ArialMT-2d"/>
      <use x="588.96484375" xlink:href="#ArialMT-41"/>
      <use x="655.6484375" xlink:href="#ArialMT-76"/>
      <use x="705.6484375" xlink:href="#ArialMT-65"/>
      <use x="761.263671875" xlink:href="#ArialMT-72"/>
      <use x="794.564453125" xlink:href="#ArialMT-61"/>
      <use x="850.1796875" xlink:href="#ArialMT-67"/>
      <use x="905.794921875" xlink:href="#ArialMT-65"/>
      <use x="961.41015625" xlink:href="#ArialMT-64"/>
     </g>
    </g>
    <g id="line2d_61">
     <path d="M 45.26 41.94125 
L 65.26 41.94125 
" style="fill:none;"/>
    </g>
    <g id="line2d_62">
     <g>
      <use style="stroke:#000000;" x="55.26" xlink:href="#m12ccd3d1d2" y="41.94125"/>
     </g>
    </g>
    <g id="text_21">
     <!-- Primary Averaged -->
     <g style="fill:#262626;" transform="translate(73.26 45.44125)scale(0.1 -0.1)">
      <use xlink:href="#ArialMT-50"/>
      <use x="66.69921875" xlink:href="#ArialMT-72"/>
      <use x="100.0" xlink:href="#ArialMT-69"/>
      <use x="122.216796875" xlink:href="#ArialMT-6d"/>
      <use x="205.517578125" xlink:href="#ArialMT-61"/>
      <use x="261.1328125" xlink:href="#ArialMT-72"/>
      <use x="294.43359375" xlink:href="#ArialMT-79"/>
      <use x="344.43359375" xlink:href="#ArialMT-20"/>
      <use x="372.138671875" xlink:href="#ArialMT-41"/>
      <use x="438.822265625" xlink:href="#ArialMT-76"/>
      <use x="488.822265625" xlink:href="#ArialMT-65"/>
      <use x="544.4375" xlink:href="#ArialMT-72"/>
      <use x="577.73828125" xlink:href="#ArialMT-61"/>
      <use x="633.353515625" xlink:href="#ArialMT-67"/>
      <use x="688.96875" xlink:href="#ArialMT-65"/>
      <use x="744.583984375" xlink:href="#ArialMT-64"/>
     </g>
    </g>
    <g id="line2d_63">
     <path d="M 45.26 56.325625 
L 65.26 56.325625 
" style="fill:none;"/>
    </g>
    <g id="line2d_64">
     <g>
      <use style="fill:none;stroke:#000000;stroke-linejoin:miter;" x="55.26" xlink:href="#m0a94af345c" y="56.325625"/>
     </g>
    </g>
    <g id="text_22">
     <!-- Secondary Non-Averaged -->
     <defs>
      <path d="M 4.5 23 
L 13.421875 23.78125 
Q 14.0625 18.40625 16.375 14.96875 
Q 18.703125 11.53125 23.578125 9.40625 
Q 28.46875 7.28125 34.578125 7.28125 
Q 39.984375 7.28125 44.140625 8.890625 
Q 48.296875 10.5 50.3125 13.296875 
Q 52.34375 16.109375 52.34375 19.4375 
Q 52.34375 22.796875 50.390625 25.3125 
Q 48.4375 27.828125 43.953125 29.546875 
Q 41.0625 30.671875 31.203125 33.03125 
Q 21.34375 35.40625 17.390625 37.5 
Q 12.25 40.1875 9.734375 44.15625 
Q 7.234375 48.140625 7.234375 53.078125 
Q 7.234375 58.5 10.296875 63.203125 
Q 13.375 67.921875 19.28125 70.359375 
Q 25.203125 72.796875 32.421875 72.796875 
Q 40.375 72.796875 46.453125 70.234375 
Q 52.546875 67.671875 55.8125 62.6875 
Q 59.078125 57.71875 59.328125 51.421875 
L 50.25 50.734375 
Q 49.515625 57.515625 45.28125 60.984375 
Q 41.0625 64.453125 32.8125 64.453125 
Q 24.21875 64.453125 20.28125 61.296875 
Q 16.359375 58.15625 16.359375 53.71875 
Q 16.359375 49.859375 19.140625 47.359375 
Q 21.875 44.875 33.421875 42.265625 
Q 44.96875 39.65625 49.265625 37.703125 
Q 55.515625 34.8125 58.484375 30.390625 
Q 61.46875 25.984375 61.46875 20.21875 
Q 61.46875 14.5 58.203125 9.4375 
Q 54.9375 4.390625 48.796875 1.578125 
Q 42.671875 -1.21875 35.015625 -1.21875 
Q 25.296875 -1.21875 18.71875 1.609375 
Q 12.15625 4.4375 8.421875 10.125 
Q 4.6875 15.828125 4.5 23 
" id="ArialMT-53"/>
     </defs>
     <g style="fill:#262626;" transform="translate(73.26 59.825625)scale(0.1 -0.1)">
      <use xlink:href="#ArialMT-53"/>
      <use x="66.69921875" xlink:href="#ArialMT-65"/>
      <use x="122.314453125" xlink:href="#ArialMT-63"/>
      <use x="172.314453125" xlink:href="#ArialMT-6f"/>
      <use x="227.9296875" xlink:href="#ArialMT-6e"/>
      <use x="283.544921875" xlink:href="#ArialMT-64"/>
      <use x="339.16015625" xlink:href="#ArialMT-61"/>
      <use x="394.775390625" xlink:href="#ArialMT-72"/>
      <use x="428.076171875" xlink:href="#ArialMT-79"/>
      <use x="478.076171875" xlink:href="#ArialMT-20"/>
      <use x="505.859375" xlink:href="#ArialMT-4e"/>
      <use x="578.076171875" xlink:href="#ArialMT-6f"/>
      <use x="633.69140625" xlink:href="#ArialMT-6e"/>
      <use x="689.306640625" xlink:href="#ArialMT-2d"/>
      <use x="722.607421875" xlink:href="#ArialMT-41"/>
      <use x="789.291015625" xlink:href="#ArialMT-76"/>
      <use x="839.291015625" xlink:href="#ArialMT-65"/>
      <use x="894.90625" xlink:href="#ArialMT-72"/>
      <use x="928.20703125" xlink:href="#ArialMT-61"/>
      <use x="983.822265625" xlink:href="#ArialMT-67"/>
      <use x="1039.4375" xlink:href="#ArialMT-65"/>
      <use x="1095.052734375" xlink:href="#ArialMT-64"/>
     </g>
    </g>
    <g id="line2d_65">
     <path d="M 45.26 70.71 
L 65.26 70.71 
" style="fill:none;"/>
    </g>
    <g id="line2d_66">
     <g>
      <use style="stroke:#000000;stroke-linejoin:miter;" x="55.26" xlink:href="#m230f37f4af" y="70.71"/>
     </g>
    </g>
    <g id="text_23">
     <!-- Secondary Averaged -->
     <g style="fill:#262626;" transform="translate(73.26 74.21)scale(0.1 -0.1)">
      <use xlink:href="#ArialMT-53"/>
      <use x="66.69921875" xlink:href="#ArialMT-65"/>
      <use x="122.314453125" xlink:href="#ArialMT-63"/>
      <use x="172.314453125" xlink:href="#ArialMT-6f"/>
      <use x="227.9296875" xlink:href="#ArialMT-6e"/>
      <use x="283.544921875" xlink:href="#ArialMT-64"/>
      <use x="339.16015625" xlink:href="#ArialMT-61"/>
      <use x="394.775390625" xlink:href="#ArialMT-72"/>
      <use x="428.076171875" xlink:href="#ArialMT-79"/>
      <use x="478.076171875" xlink:href="#ArialMT-20"/>
      <use x="505.78125" xlink:href="#ArialMT-41"/>
      <use x="572.46484375" xlink:href="#ArialMT-76"/>
      <use x="622.46484375" xlink:href="#ArialMT-65"/>
      <use x="678.080078125" xlink:href="#ArialMT-72"/>
      <use x="711.380859375" xlink:href="#ArialMT-61"/>
      <use x="766.99609375" xlink:href="#ArialMT-67"/>
      <use x="822.611328125" xlink:href="#ArialMT-65"/>
      <use x="878.2265625" xlink:href="#ArialMT-64"/>
     </g>
    </g>
    <g id="line2d_67">
     <path d="M 45.26 84.9725 
L 65.26 84.9725 
" style="fill:none;stroke:#1f78b4;stroke-linecap:round;stroke-width:1.75;"/>
    </g>
    <g id="line2d_68"/>
    <g id="text_24">
     <!-- P -->
     <g style="fill:#262626;" transform="translate(73.26 88.4725)scale(0.1 -0.1)">
      <use xlink:href="#ArialMT-50"/>
     </g>
    </g>
    <g id="line2d_69">
     <path d="M 45.26 99.117813 
L 65.26 99.117813 
" style="fill:none;stroke:#1f78b4;stroke-dasharray:6.000000,6.000000;stroke-dashoffset:0.0;stroke-width:1.75;"/>
    </g>
    <g id="line2d_70"/>
    <g id="text_25">
     <!-- Pdiff -->
     <defs>
      <path d="M 8.6875 0 
L 8.6875 45.015625 
L 0.921875 45.015625 
L 0.921875 51.859375 
L 8.6875 51.859375 
L 8.6875 57.375 
Q 8.6875 62.59375 9.625 65.140625 
Q 10.890625 68.5625 14.078125 70.671875 
Q 17.28125 72.796875 23.046875 72.796875 
Q 26.765625 72.796875 31.25 71.921875 
L 29.9375 64.265625 
Q 27.203125 64.75 24.75 64.75 
Q 20.75 64.75 19.09375 63.03125 
Q 17.4375 61.328125 17.4375 56.640625 
L 17.4375 51.859375 
L 27.546875 51.859375 
L 27.546875 45.015625 
L 17.4375 45.015625 
L 17.4375 0 
z
" id="ArialMT-66"/>
     </defs>
     <g style="fill:#262626;" transform="translate(73.26 102.6178125)scale(0.1 -0.1)">
      <use xlink:href="#ArialMT-50"/>
      <use x="66.69921875" xlink:href="#ArialMT-64"/>
      <use x="122.314453125" xlink:href="#ArialMT-69"/>
      <use x="144.53125" xlink:href="#ArialMT-66"/>
      <use x="172.298828125" xlink:href="#ArialMT-66"/>
     </g>
    </g>
    <g id="line2d_71">
     <path d="M 45.26 113.263125 
L 65.26 113.263125 
" style="fill:none;stroke:#a6cee3;stroke-linecap:round;stroke-width:1.75;"/>
    </g>
    <g id="line2d_72"/>
    <g id="text_26">
     <!-- PKiKP -->
     <defs>
      <path d="M 7.328125 0 
L 7.328125 71.578125 
L 16.796875 71.578125 
L 16.796875 36.078125 
L 52.34375 71.578125 
L 65.1875 71.578125 
L 35.15625 42.578125 
L 66.5 0 
L 54 0 
L 28.515625 36.234375 
L 16.796875 24.8125 
L 16.796875 0 
z
" id="ArialMT-4b"/>
     </defs>
     <g style="fill:#262626;" transform="translate(73.26 116.763125)scale(0.1 -0.1)">
      <use xlink:href="#ArialMT-50"/>
      <use x="66.69921875" xlink:href="#ArialMT-4b"/>
      <use x="133.3984375" xlink:href="#ArialMT-69"/>
      <use x="155.615234375" xlink:href="#ArialMT-4b"/>
      <use x="222.314453125" xlink:href="#ArialMT-50"/>
     </g>
    </g>
    <g id="line2d_73">
     <path d="M 45.26 127.408438 
L 65.26 127.408438 
" style="fill:none;stroke:#33a02c;stroke-linecap:round;stroke-width:1.75;"/>
    </g>
    <g id="line2d_74"/>
    <g id="text_27">
     <!-- S -->
     <g style="fill:#262626;" transform="translate(73.26 130.9084375)scale(0.1 -0.1)">
      <use xlink:href="#ArialMT-53"/>
     </g>
    </g>
    <g id="line2d_75">
     <path d="M 45.26 141.55375 
L 65.26 141.55375 
" style="fill:none;stroke:#33a02c;stroke-dasharray:6.000000,6.000000;stroke-dashoffset:0.0;stroke-width:1.75;"/>
    </g>
    <g id="line2d_76"/>
    <g id="text_28">
     <!-- Sdiff -->
     <g style="fill:#262626;" transform="translate(73.26 145.05375)scale(0.1 -0.1)">
      <use xlink:href="#ArialMT-53"/>
      <use x="66.69921875" xlink:href="#ArialMT-64"/>
      <use x="122.314453125" xlink:href="#ArialMT-69"/>
      <use x="144.53125" xlink:href="#ArialMT-66"/>
      <use x="172.298828125" xlink:href="#ArialMT-66"/>
     </g>
    </g>
    <g id="line2d_77">
     <path d="M 45.26 155.699063 
L 65.26 155.699063 
" style="fill:none;stroke:#b2df8a;stroke-linecap:round;stroke-width:1.75;"/>
    </g>
    <g id="line2d_78"/>
    <g id="text_29">
     <!-- SS -->
     <g style="fill:#262626;" transform="translate(73.26 159.1990625)scale(0.1 -0.1)">
      <use xlink:href="#ArialMT-53"/>
      <use x="66.69921875" xlink:href="#ArialMT-53"/>
     </g>
    </g>
   </g>
  </g>
 </g>
 <defs>
  <clipPath id="p00eafeb89f">
   <rect height="334.8" width="446.4" x="36.26" y="15.0209375"/>
  </clipPath>
 </defs>
</svg>
